<svg xmlns:dc="http://purl.org/dc/elements/1.1/" xmlns:cc="http://creativecommons.org/ns#" xmlns:rdf="http://www.w3.org/1999/02/22-rdf-syntax-ns#" xmlns:svg="http://www.w3.org/2000/svg" xmlns="http://www.w3.org/2000/svg" height="761.81335" width="577.61334" xml:space="preserve" version="1.1" style=""><rect id="backgroundrect" width="100%" height="100%" x="0" y="0" fill="none" stroke="none"/><metadata id="metadata8"><rdf:RDF><cc:Work rdf:about=""><dc:format>image/svg+xml</dc:format><dc:type rdf:resource="http://purl.org/dc/dcmitype/StillImage"/></cc:Work></rdf:RDF></metadata><defs id="defs6"/><g class="currentLayer" style=""><title>Layer 1</title><path id="path64" style="fill:#f14a1c;fill-opacity:1;fill-rule:nonzero;stroke:none" d="m555.1359943937709,107.2053366107807 c0,0 7.04266659554391,-4.902666617155425 9.689333235482316,-8.206666583788861 c1.6693333164750046,-2.079999978994415 2.789333305164305,-4.582666620387053 3.727999962351528,-7.078666595180351 l4.470666621518124,-11.92666654622118 c0.8213333250388202,-2.1959999778229493 2.921333303831258,-3.7626666286681014 3.729333295671396,-5.965333273090392 c0.5999999939406966,-1.6466666500372449 0.8879999910322309,-3.466666631657358 0.7466666591262001,-5.217333280644324 c-0.20799999789944149,-2.4693333083959335 -2.1293333118295386,-4.610666620104285 -2.237333310738864,-7.0853332617796925 c-0.15066666514510824,-3.434666631980521 2.237333310738864,-10.05999989840568 2.237333310738864,-10.05999989840568 c0.5946666606612236,-2.689333306174189 -1.2946666535920364,-5.4106666120252145 -2.613333306941701,-7.830666587586024 c-0.3773333295227047,-0.6986666596109444 -1.491999984932532,-1.8613333145360276 -1.491999984932532,-1.8613333145360276 c-2.0919999788732286,-2.6199999735410415 0.7239999926884405,-6.783999931489476 0,-10.06666656500502 c-0.37599999620283653,-1.7386666491081517 -2.2359999774189956,-4.842666617761355 -2.2359999774189956,-4.842666617761355 c-0.5119999948293944,-1.1226666553290368 -1.4906666516126639,-2.0933333121930966 -2.6053333070224913,-2.6119999736218324 c-2.8306666380802197,-1.2999999868715093 -9.322666572518557,-0.7386666592069909 -9.322666572518557,-0.7386666592069909 c-5.841333274342649,-0.47333332855321614 -11.679999882045559,0.9159999907494635 -17.51466648978887,1.4906666516126639 c-0.5439999945062316,0.053333332794728586 -1.1573333216456103,0.11599999882853468 -1.8106666483810354,0.1826666648219454 l5.4453332783417885,87.93733244526835 c3.3599999660679005,-1.894666647532733 6.849333264163018,-3.635999963280621 9.785333234512827,-6.118666604875237 " stroke-width="0" class=""/><path id="path66" style="fill:#fadd32;fill-opacity:1;fill-rule:nonzero;stroke:none" d="m474.8093285383103,401.4400003060189 c3.2359999673201565,-3.8639999609780857 5.97466660632947,-8.213333250388201 8.014666585727838,-12.82266653717262 c1.8733333144148416,-4.246666623780263 3.727999962351528,-13.417333197833843 3.727999962351528,-13.417333197833843 c1.9613333135261437,-7.065333261981669 -0.6239999936983244,-14.655999851991416 -0.7453333258063319,-21.989333111266593 c-0.1933333313808911,-11.05866655498697 0,-33.17733299828078 0,-33.17733299828078 c0,-1.0466666560965483 0.057333332754333236,-2.087999978913624 0.1559999984245811,-3.126666635090963 l-46.99466619207509,74.45866591472058 l35.841332971377476,10.074666564924229 " stroke-width="0" class=""/><path id="path68" style="fill:#ede280;fill-opacity:1;fill-rule:nonzero;stroke:none" d="m404.0693292527022,526.238665712364 c0.4653333286340069,6.749333265172901 0.8479999914361845,15.953333172223187 0.8479999914361845,15.953333172223187 c0.09733333235037968,1.6413333167577722 0.16666666498352684,3.281333300195676 0.22399999773786006,4.922666616953449 l38.23866628050053,1.32933331990861 c-0.3053333302498211,-14.067999857929532 1.0479999894164167,-33.83999965825529 1.0479999894164167,-33.83999965825529 c0.1573333317444493,-8.20799991710873 0.3906666627213869,-16.457333167133374 1.4906666516126639,-24.595999751608954 c0.8066666585202698,-5.92133327353474 2.694666639453662,-11.638666549129645 3.729333295671396,-17.521333156388206 c0,0 1.4559999852960903,-8.451999914644611 2.2359999774189956,-12.67333320534738 c0.7173333260890994,-3.8639999609780857 1.7013333161518418,-7.666666589242234 2.2346666440991276,-11.557333216617685 c0.6306666602976656,-4.569333287188372 0.17066666494313146,-9.281333239602642 1.1213333220091686,-13.787999860757207 c0.7053333262102855,-3.3453332995493503 3.3533332994685594,-9.690666568802184 3.3533332994685594,-9.690666568802184 c0.6679999932539755,-1.9359999804486474 1.5679999841650203,-3.7733332952270473 2.5893333071840727,-5.553333277251114 l-22.214666442324326,-27.858666385326476 l-34.89866631423065,134.87333197126924 " stroke-width="0" class=""/><path id="path70" style="fill:#f3f280;fill-opacity:1;fill-rule:nonzero;stroke:none" d="m461.1826620092571,419.2240001264212 c1.5693333174848885,-2.723999972490762 3.431999965340784,-5.307999946395363 5.239999947082083,-7.865333253902598 c2.4413333086787006,-3.4626666316977532 8.199999917189519,-9.690666568802184 8.199999917189519,-9.690666568802184 l0.18666666478155003,-0.22799999769746468 l-35.841332971377476,-10.074666564924229 l22.214666442324326,27.858666385326476 " stroke-width="0" class=""/><path id="path72" style="fill:#f2561a;fill-opacity:1;fill-rule:nonzero;stroke:none" d="m506.11066155553647,140.15466961136417 c0.763999992284487,-1.7546666489465703 1.759999982226043,-3.4093332989030247 3.173333301286351,-4.621333286663231 c0,0 5.006666616105146,-4.758666618609658 7.830666587586024,-6.715999932176197 c4.890666617276611,-3.378666632546056 10.437333227928384,-5.710666608995563 15.654666508572706,-8.567999913473148 c3.8506666277794035,-2.1146666453109884 7.7626665882727455,-4.1253332916722565 11.55333321665808,-6.341333269293229 c0.3399999965663947,-0.19866666466036398 0.6813333264526577,-0.39199999604125507 1.0279999896183933,-0.583999994102278 l-5.4453332783417885,-87.93733244526835 c-4.711999952414271,0.49599999499097586 -11.607999882772676,1.3079999867907186 -11.607999882772676,1.3079999867907186 c-2.2333333107792592,0.24666666417561972 -4.489333287996279,0.3519999964452087 -6.7373332652940885,0.5013333282704487 l-102.71466562936779,123.5453320856689 l87.26533245205478,-10.586666559753624 " stroke-width="0" class=""/><path id="path74" style="fill:#d0e597;fill-opacity:1;fill-rule:nonzero;stroke:none" d="m405.25332924074513,551.1999987936168 l48.82799950689388,32.227999674534615 c-0.9413333238269594,-0.875999991153417 -1.8133333150207718,-1.81466664834064 -2.566666640746313,-2.8479999712385062 c-2.497333308113166,-3.411999965542761 -5.21999994728406,-11.551999883338212 -5.21999994728406,-11.551999883338212 c-1.974666646724826,-4.3759999558074805 -2.2159999776209727,-9.382666571912626 -2.6119999736218324,-14.170666523559385 c-0.1559999984245811,-1.9039999807718104 -0.25199999745509255,-4.079999958796737 -0.3026666636100847,-6.413333268566112 l-38.23866628050053,-1.32933331990861 c0.04533333287551931,1.3626666529053153 0.08266666583182931,2.7226666391708942 0.11199999886893003,4.08533329207621 " stroke-width="0" class=""/><path id="path76" style="fill:#fab310;fill-opacity:1;fill-rule:nonzero;stroke:none" d="m438.9679955669328,391.3653337410947 l46.99466619207509,-74.45866591472058 c0.6666666599341073,-6.954666596432607 3.2719999669565984,-13.735999861282346 3.9386666268907056,-20.726666457351396 c0.5973333273009602,-6.189333270828253 0.45199999543532476,-12.42666654117176 0.37599999620283653,-18.637333145117903 c0,0 -0.9439999904666959,-17.746666487445935 -0.46399999531413866,-27.91466638476094 l-128.81733203242783,32.742666336003744 l77.97199921257331,108.99466556594707 " stroke-width="0" class=""/><path id="path78" style="fill:#f14c1c;fill-opacity:1;fill-rule:nonzero;stroke:none" d="m521.5599947328494,27.196004085448862 c-2.6266666401403826,0.1746666649027361 -5.24266661372182,0.40666666255980544 -7.80399992118866,0.9893333233422152 c-3.602666630283916,0.8133333251196109 -6.797333264688158,3.09199996877439 -10.434666561288648,3.7213332957521867 c-0.8559999913553937,0.15066666514510824 -1.9906666465632443,0.614666660459247 -2.6066666403423597,0 c-1.3199999866695324,-1.3133333200701913 0,-5.587999943567687 0,-5.587999943567687 c0,0 -0.24533333085575149,-4.138666624870938 -1.1226666553290368,-5.965333273090392 c-1.4826666516934546,-3.0973333020538627 -6.706666598937119,-7.827999920946288 -6.706666598937119,-7.827999920946288 c-1.8959999808526011,-2.2026666444222904 -5.315999946314571,-2.586666640544336 -8.201333250509387,-2.982666636545196 c-3.206666634283056,-0.4386666622366426 -9.690666568802184,0.7519999924056731 -9.690666568802184,0.7519999924056731 c-1.8546666479366865,0.1359999986265579 -3.7693332952674425,0.3959999960008597 -5.587999943567687,0 c-6.0253332724844615,-1.341333319787424 -16.777333163901744,-7.831999920905893 -16.777333163901744,-7.831999920905893 c-7.79599992126945,-3.6373332966004894 -17.1106664938688,-2.1399999783884844 -25.715999740298255,-2.2346666440991276 c-8.342666582415418,-0.09466666571064325 -16.739999830945433,0.057333332754333236 -25.04799974704428,0.9066666575103859 l16.98133316184158,149.606665155813 l102.71466562936779,-123.5453320856689 " stroke-width="0" class=""/><path id="path80" style="fill:#cfca82;fill-opacity:1;fill-rule:nonzero;stroke:none" d="m405.29466257366107,553.3679987717226 c0.03999999959604644,2.3653333094462123 0,7.083999928459824 0,7.083999928459824 c0,1.9293333138493065 0.7853333254023784,3.797333294984675 1.4893333182927957,5.594666610167028 c0.8693333245540759,2.222666644220314 3.3519999661486914,6.334666602693887 3.3519999661486914,6.334666602693887 c1.634666650158431,3.077333302255839 0.3359999966067901,6.974666596230631 0.7453333258063319,10.434666561288648 c0.44533332883598364,3.7479999621495512 -0.046666666195387514,7.919999920017195 1.8666666478155003,11.183999887054583 c1.609333317080935,2.741333305649049 7.457333258022924,5.961333273130787 7.457333258022924,5.961333273130787 c1.6266666502392217,1.2999999868715093 1.2093333211204707,3.9879999597258298 1.8573333145764228,5.965333273090392 c1.1906666546423155,3.617333296802466 3.727999962351528,10.811999890811352 3.727999962351528,10.811999890811352 c1.0959999889316725,3.1586666347678003 3.269333300316862,5.85466660754133 5.218666613964192,8.570666580112883 c1.8066666484214309,2.5106666413118477 5.963999939770523,7.07999992850022 5.963999939770523,7.07999992850022 c1.4026666525013616,1.6599999832359271 3.8239999613820395,2.281333310294515 5.963999939770523,2.6103999736379904 c2.2293333108196545,0.3401333298983816 5.218666613964192,-0.3691999962715086 6.710666598896724,-0.7451999924743452 c1.4893333182927957,-0.3771999961907179 5.025333282583301,-1.3547999863180928 6.338666602653492,-3.358399966084059 c0.8879999910322309,-1.3535999863302113 -1.0879999890124632,-4.130799958283716 0.36799999628362723,-4.841466617773474 c1.2106666544403388,-0.5893333273817508 3.3599999660679005,2.2359999774189956 3.3599999660679005,2.2359999774189956 c3.759999962028365,2.5090666413280065 8.226666583586884,4.02786662598989 12.671999872027513,4.84919995102871 c2.810666638282196,0.5203999947445641 5.882666607258562,0.9718666568519415 8.567999913473148,0 c1.8279999815393222,-0.6625333266425159 3.4413332985798615,-2.0853333122738875 4.474666621477728,-3.73586662893875 c0.546666661145968,-0.8599999913149984 0.7866666587222466,-1.9559999802466708 0.7453333258063319,-2.97999996990546 c-0.055999999434465014,-1.566666650845152 -1.4906666516126639,-4.474666621477728 -1.4906666516126639,-4.474666621477728 c-0.3079999968895576,-0.9146666574295952 1.6679999831551364,-1.0719999891740444 2.237333310738864,-1.8599999812161592 c0.7866666587222466,-1.0799999890932537 1.4893333182927957,-3.7266666290316595 1.4893333182927957,-3.7266666290316595 c0.5146666614691309,-1.2639999872350676 0.4386666622366426,-2.805333305002723 0,-4.095999958635155 c-0.5866666607420145,-1.770666648784989 -3.3519999661486914,-4.47333328815786 -3.3519999661486914,-4.47333328815786 c-3.7066666292336365,-4.938666616791867 -9.293333239481456,-8.138666584475581 -14.162666523640175,-11.92666654622118 c-3.8639999609780857,-3.00933330294256 -11.927999879541046,-8.577333246712223 -11.927999879541046,-8.577333246712223 c-1.6759999830743457,-1.2066666544807343 -3.3706666326268464,-2.4533333085575144 -4.886666617317006,-3.8613332943383494 L405.25332924074513,551.1999987936168 c0.015999999838418575,0.7213333260487041 0.029333333037100725,1.4453333187371447 0.04133333291591466,2.1679999781057173 " stroke-width="0" class=""/><path id="path82" style="fill:#f57515;fill-opacity:1;fill-rule:nonzero;stroke:none" d="m497.75599497324225,209.56933557702325 c0.583999994102278,-3.050666635858475 1.0893333223323314,-5.829333274463834 1.0893333223323314,-5.829333274463834 c0,0 0.48799999507176656,-4.47333328815786 0.7466666591262001,-6.709333265576856 c0.8373333248772388,-7.083999928459824 1.8959999808526011,-14.14266652384215 2.613333306941701,-21.242666452140394 c0.6293333269777972,-6.201333270707066 0.9239999906686727,-12.431999874451233 1.4906666516126639,-18.642666478397377 c0.4466666621558519,-4.847999951040828 -0.013333333198682146,-9.903999899981098 1.491999984932532,-14.533333186563539 c0.2653333306537747,-0.8186666583990837 0.571999994223464,-1.647999983357113 0.9226666573488045,-2.4573333085171196 l-87.26533245205478,10.586666559753624 l78.91066586976055,58.827999405905494 " stroke-width="0" class=""/><path id="path84" style="fill:#f68712;fill-opacity:1;fill-rule:nonzero;stroke:none" d="m360.9959963543595,282.3706681751476 l128.81733203242783,-32.742666336003744 c0.025333333077496082,-0.534666661267154 0.0546666661145968,-1.0466666560965483 0.08799999911130219,-1.534666651168315 c0.28799999709153434,-4.130666624951729 0.9106666574699905,-8.261333249903458 1.8679999811353687,-12.297333209144544 c0,0 3.3719999659467144,-13.63599986229223 4.841333284441488,-20.503999792933403 c0.3306666633273172,-1.5333333178484467 0.7546666590454094,-3.686666629435613 1.1453333217667963,-5.722666608874377 l-78.91066586976055,-58.827999405905494 l-57.849332749122226,131.6293320040299 " stroke-width="0" class=""/><path id="path86" style="fill:#ef401e;fill-opacity:1;fill-rule:nonzero;stroke:none" d="m401.86399594164016,1.1346710153046615 c-3.2213333008016063,0.3306666633273172 -6.431999935044267,0.7613333256447505 -9.6186665695293,1.3279999865887417 c-4.718666619013612,0.8413333248368434 -13.794666527356547,4.098666625274891 -13.794666527356547,4.098666625274891 c-2.1066666453917793,0.627999993657929 -3.2413333005996297,3.021333302821374 -4.47333328815786,4.847999951040828 c-1.14266665512706,1.7039999827915782 -0.9986666565812927,4.309333289814069 -2.6053333070224913,5.587999943567687 c-2.2839999769342514,1.831999981498927 -5.7653332751101605,1.0533333226958896 -8.577333246712223,1.865333314495632 c-2.4133333089614686,0.7066666595301537 -7.077333261860483,2.6066666403423597 -7.077333261860483,2.6066666403423597 c-3.050666635858475,1.1293333219283779 -4.378666622447217,4.821333284643464 -6.709333265576856,7.08666659509956 c-3.2213333008016063,3.1173333018518856 -10.06666656500502,8.945333242995853 -10.06666656500502,8.945333242995853 c-3.16666663468701,2.8159999715616695 -4.603999953504945,7.973333252811923 -6.710666598896724,10.805333224212012 c-2.099999978792438,2.8306666380802197 -4.417333288723396,3.7759999618667837 -5.586666610247819,6.33999993597336 c-1.559999984245811,3.4253332987414433 0.17066666494313146,7.809333254468132 -1.4906666516126639,11.182666553734716 c-0.7053333262102855,1.422666652299385 -2.6199999735410415,1.9559999802466708 -3.3586666327480326,3.350666632828823 c-1.1253333219687731,2.1519999782672983 -1.4213333189795168,6.815999931166313 -1.47866665173385,7.951999919694032 l98.52933233830146,73.60933258996452 l-16.98133316184158,-149.606665155813 " stroke-width="0" class="selected"/><path id="path88" style="fill:#f03f1e;fill-opacity:1;fill-rule:nonzero;stroke:none" d="m320.3159967651803,77.1320035811533 c-0.00799999991920929,0.1639999983437904 -0.011999999878813934,0.254666664094829 -0.011999999878813934,0.254666664094829 c-0.8013333252407969,4.39866662224524 -0.9226666573488045,9.041333242026363 0,13.41999986447358 c0.5119999948293944,2.3919999758435773 2.97999996990546,6.699999932337779 2.97999996990546,6.699999932337779 c0.9719999901839285,2.1893333112236086 2.1359999784288797,4.289333290016047 3.3599999660679005,6.341333269293229 c0.689333326371867,1.1559999883257421 2.0186666462804768,2.030666646159291 2.237333310738864,3.357333299428164 c0.40133332928033255,2.4079999756819954 -1.8679999811353687,7.07999992850022 -1.8679999811353687,7.07999992850022 c-2.4146666422813365,9.182666573932394 -1.286666653672827,18.983999808283638 -2.982666636545196,28.326666380600216 c-0.3946666626809915,2.1839999779441355 -1.0706666558541762,5.03333328250251 -1.807999981741299,7.8973332535794345 l96.6226656908899,0.23199999765706936 l-98.52933233830146,-73.60933258996452 " stroke-width="0" class=""/><path id="path90" style="fill:#f8b137;fill-opacity:1;fill-rule:nonzero;stroke:none" d="m285.9586637788161,390.5280004162175 l54.97733277812609,76.23333256346517 c0.7359999925672543,-0.6906666596917351 1.4719999851345087,-1.378666652743734 2.1093333120315156,-2.1039999787520425 c2.6039999737026234,-2.977333303265723 8.198666583869652,-8.570666580112883 8.198666583869652,-8.570666580112883 c2.803999971682855,-2.933333303710072 5.990666606167888,-5.5119999443352 9.321333239198689,-7.830666587586024 c2.4626666417965923,-1.7173333159902604 7.823999920986683,-4.47333328815786 7.823999920986683,-4.47333328815786 c1.7306666491889426,-0.9919999899819517 3.9813332931264886,-0.21199999785904614 5.963999939770523,-0.37599999620283653 c3.610666630203125,-0.29333333037100723 10.813333224131219,-1.1146666554098272 10.813333224131219,-1.1146666554098272 c3.2213333008016063,-0.3359999966067901 7.249333260123482,-1.3879999859828114 9.690666568802184,0.7453333258063319 c1.341333319787424,1.1773333214436335 1.1159999887296954,5.218666613964192 1.1159999887296954,5.218666613964192 l1.4893333182927957,16.40133316769891 c0.5479999944658362,5.9693332730499975 1.2599999872754626,11.92666654622118 1.8679999811353687,17.890666485991705 c0.627999993657929,6.215999937225616 1.8599999812161592,18.635999811798037 1.8599999812161592,18.635999811798037 c0.7239999926884405,7.22133326040625 1.970666646765221,14.389333188017773 2.613333306941701,21.626666448262437 c0.08933333243117039,1.0079999898203702 0.17866666486234076,2.1759999780249264 0.2653333306537747,3.4279999653811797 l34.89866631423065,-134.87333197126924 l-153.0093317881167,-0.8373333248772388 " stroke-width="0" class=""/><path id="path92" style="fill:#f8a211;fill-opacity:1;fill-rule:nonzero;stroke:none" d="m438.9679955669328,391.3653337410947 l-77.97199921257331,-108.99466556594707 l-75.03733257554337,108.15733224106982 z" stroke-width="0" class=""/><path id="path94" style="fill:#f36518;fill-opacity:1;fill-rule:nonzero;stroke:none" d="m418.84532910348173,150.74133617111772 l-96.6226656908899,-0.23199999765706936 c-1.5679999841650203,6.079999938599059 -3.4093332989030247,12.230666543151132 -3.4093332989030247,12.230666543151132 c-1.2319999875582304,4.765333285209 -6.641333266263577,7.439999924864637 -10.806666557531878,10.06666656500502 c-2.59866664042315,1.6293333168789583 -8.575999913392355,3.3519999661486914 -8.575999913392355,3.3519999661486914 c-3.2559999671181803,1.2719999871542766 -8.569333246793015,0.36933332960349546 -10.437333227928384,1.1199999886893004 c-1.8599999812161592,0.7399999925268591 -8.766666578133512,-0.2586666640544336 -13.041333201631007,-1.1199999886893004 c-4.687999952656642,-0.9479999904263006 -9.161333240814502,-2.7493333055682587 -13.645333195531308,-4.415999955403526 l98.68933233668564,110.62799888278563 l57.849332749122226,-131.6293320040299 " stroke-width="0" class=""/><path id="path96" style="fill:#f58b46;fill-opacity:1;fill-rule:nonzero;stroke:none" d="m277.2719971998747,412.21066686391435 c4.583999953706922,5.991999939487756 2.3919999758435773,27.345333057177214 1.2853333203529589,39.40266626874548 h0.006666666599341074 c0.45866666203466583,16.687999831470574 3.727999962351528,49.94666616226332 3.727999962351528,49.94666616226332 c0.9799999901031377,13.18133320021717 2.002666646442058,26.365333067074076 3.19599996772411,39.53199960077269 l48.575999509438795,2.4879999748740884 c-0.3119999968491622,-14.70533318482654 -0.33466666328692185,-31.582666347718398 -0.33466666328692185,-31.582666347718398 c-0.10399999894972074,-6.094666605117609 0.1093333322291936,-12.17999987699614 0.36933332960349546,-18.267999815514408 c0.16266666502392219,-3.8573332943787446 0.20399999793983684,-7.7279999219561715 0.7453333258063319,-11.558666549937552 c0.48533332843203014,-3.397333299024211 2.2346666440991276,-10.05999989840568 2.2346666440991276,-10.05999989840568 c0.4813333284724255,-2.1626666448262437 2.169333311425585,-3.766666628627706 3.8573332943787446,-5.349333279311277 l-54.97733277812609,-76.23333256346517 l-8.686666578941418,21.682666447696906 " stroke-width="0" class=""/><path id="path98" style="fill:#f58b46;fill-opacity:1;fill-rule:nonzero;stroke:none" d="m259.17466404930343,463.91066634180436 c1.3199999866695324,-0.7119999928096266 0.478666661832689,-3.5159999644924818 1.8679999811353687,-4.097333291955024 c1.694666649552501,-0.7186666594089676 3.5013332979739316,2.5506666409078944 5.217333280644324,1.8666666478155003 c0.7733333255235644,-0.3133333301690304 0.7946666586414559,-1.4693333184947723 1.1146666554098272,-2.2413333106984683 c0.602666660580433,-1.4506666520166176 1.491999984932532,-4.474666621477728 1.491999984932532,-4.474666621477728 c0.5333333279472858,-1.5986666505219893 -0.9306666572680138,-3.2479999671989708 -1.491999984932532,-4.841333284441488 c-0.6639999932943709,-1.8866666476135237 -2.00133331312219,-5.115999948334339 -2.6333333067397238,-6.627999933064895 l-8.898666576800464,22.213333109004456 l3.331999966350668,-1.7973333151823534 " stroke-width="0" class=""/><path id="path100" style="fill:#b97b65;fill-opacity:1;fill-rule:nonzero;stroke:none" d="m331.1173299894327,693.8919973525932 c0.8959999909514401,-0.15053333181312142 1.7573333155863067,-0.44373332885214184 2.6119999736218324,-0.7442666591504373 c1.5253333179292374,-0.5359999945870222 4.471999954837991,-1.862533314523909 4.471999954837991,-1.862533314523909 c1.70266664947171,-0.7103999928257848 2.2706666437355696,2.9546666368279637 3.727999962351528,4.098933291938866 c1.4426666520974083,1.1265333219566545 4.842666617761355,2.6051999736905045 4.842666617761355,2.6051999736905045 c1.770666648784989,0.9557333236815362 3.96533329328807,-1.0614666559470856 5.594666610167028,-2.2295999774836286 c1.7146666493505238,-1.2447999874289652 4.095999958635155,-4.849066617696723 4.095999958635155,-4.849066617696723 c2.0093333130413993,-2.373333309365422 -0.21199999785904614,-6.265599936724714 0.3746666628829683,-9.322799905850545 c0.4186666624386194,-2.2010666444384483 2.347999976287926,-4.094266625319326 2.2359999774189956,-6.3318666027221635 c0,0 0.3653333296438908,-5.082799948669621 -0.3746666628829683,-7.456266591367029 c-0.9093333241501224,-2.9265333037787444 -3.262666633717521,-5.195733280862459 -4.841333284441488,-7.822399921002841 c0,0 -0.44933332879558835,-0.6639999932943709 -1.123999988648905,-1.6957333162083952 L327.9146633551092,694.5477306793044 c1.4866666516530593,-0.20106666463612677 3.2026666343234513,-0.6557333267111879 3.2026666343234513,-0.6557333267111879 " stroke-width="0" class=""/><path id="path102" style="fill:#de9c54;fill-opacity:1;fill-rule:nonzero;stroke:none" d="m286.76399710401654,554.4893320937317 c0.7879999920421148,7.842666587464838 2.4213333088806777,21.40133311720471 3.2386666339598933,28.090666382983546 l49.84799949659307,35.115999645369165 c-1.2453333207569124,-10.057333231765943 -2.771999972006018,-27.423999723049437 -2.771999972006018,-27.423999723049437 c-1.1399999884873235,-11.161333220616823 -2.0786666456745464,-22.34399977435154 -2.6039999737026234,-33.546666327884274 c-0.1746666649027361,-3.690666629395218 -0.3079999968895576,-8.301333249499503 -0.4106666625194101,-13.145333200580728 l-48.575999509438795,-2.4879999748740884 c0.40399999592006897,4.467999954878387 0.8279999916381613,8.933333243117037 1.2759999871138814,13.39733319803582 " stroke-width="0" class=""/><path id="path104" style="fill:#f57914;fill-opacity:1;fill-rule:nonzero;stroke:none" d="m360.9959963543595,282.3706681751476 l-121.15066544318557,12.577333206316867 l46.11333286764221,95.57999903475296 z" stroke-width="0" class=""/><path id="path106" style="fill:#f36218;fill-opacity:1;fill-rule:nonzero;stroke:none" d="m360.9959963543595,282.3706681751476 l-98.68933233668564,-110.62799888278563 l-0.14933333182524006,-0.057333332754333236 c-3.9119999604933415,-1.4493333186967494 -11.551999883338212,-4.841333284441488 -11.551999883338212,-4.841333284441488 c-2.5719999740257857,-1.0786666557733855 -5.129333281533022,-2.2293333108196545 -7.713333255437622,-3.299999966673831 l-3.0466666358988705,131.40399867297214 l121.15066544318557,-12.577333206316867 " stroke-width="0" class=""/><path id="path108" style="fill:#c26756;fill-opacity:1;fill-rule:nonzero;stroke:none" d="m290.1159970701652,667.0545309569538 c-0.18533333146168185,4.630666619902309 1.8666666478155003,13.794799860688535 1.8666666478155003,13.794799860688535 c0.29333333037100723,2.1749333113690317 2.810666638282196,3.3999999656639472 4.471999954837991,4.842666617761355 c1.4853333183331912,1.2853333203529589 3.00933330294256,2.646799973270393 4.842666617761355,3.3519999661486914 c1.7586666489061749,0.6829333264364995 3.7213332957521867,0.9291999906161588 5.594666610167028,0.750533325753818 c1.1693333215244242,-0.1161333321605215 2.386666642564104,-0.45199999543532476 3.350666632828823,-1.1213333220091686 c0.6573333266950298,-0.44946666212757513 1.491999984932532,-1.8598666478841726 1.491999984932532,-1.8598666478841726 c0.9359999905474866,-1.1759999881237653 1.8186666483002447,2.407866642350009 2.982666636545196,3.3505332994968366 c1.5586666509259428,1.2587999872875815 5.215999947324455,2.9838666365330777 5.215999947324455,2.9838666365330777 c1.9919999798831125,1.1349333218718243 4.418666622043263,1.4281333189108447 6.710666598896724,1.4910666516086244 c0.36133332968428616,0.00893333324311704 0.8039999918805334,-0.02813333304921933 1.2706666538344085,-0.09106666574699908 l24.818666416026943,-36.266132967087486 c-1.5559999842862065,-2.3802666426287367 -4.321333289692883,-6.734933265318325 -5.586666610247819,-9.494799904113542 c-0.8879999910322309,-1.9307999805011615 -1.6493333166769812,-3.9187999604246695 -2.327999976489903,-5.938533273361041 L291.6679970544918,656.6346643955158 c-0.8213333250388202,3.4333332986606524 -1.410666652420571,6.909333263557088 -1.551999984326602,10.419866561438111 " stroke-width="0" class=""/><path id="path110" style="fill:#d4714d;fill-opacity:1;fill-rule:nonzero;stroke:none" d="m290.49199706636807,586.5453317700033 c0.5813333274625416,5.031999949182642 1.1079999888104863,10.195999897032237 2.9813333032253277,14.906666516126638 c0.8626666579547349,2.1826666446242675 3.7266666290316595,5.965333273090392 3.7266666290316595,5.965333273090392 c2.783999971884832,4.451999955039969 1.7386666491081517,10.40266656161181 1.8613333145360276,15.654666508572706 c0.12399999874774396,5.223999947243665 -1.1146666554098272,15.654933175236682 -1.1146666554098272,15.654933175236682 c-0.20533333125970504,2.831733304736114 -2.4906666415138248,5.122399948269707 -3.3586666327480326,7.830133254258077 c-1.0613333226150987,3.3161332998442363 -2.1039999787520425,6.675066599256243 -2.9199999705113897,10.07759989822794 l53.15066612990664,-13.786399860773365 c-0.8253333249984248,-2.457866641845067 -1.5239999846093693,-4.963066616545455 -2.1439999783480888,-7.479199924468763 c-1.2986666535516411,-5.2530666136167925 -1.8999999808122057,-10.65439989240293 -2.6119999736218324,-16.025066504832097 c-0.06933333263314716,-0.5213333280684719 -0.13999999858616255,-1.0733333224939128 -0.21199999785904614,-1.647999983357113 l-49.84799949659307,-35.115999645369165 c0.2999999969703483,2.438666642038964 0.48933332839163474,3.96533329328807 0.48933332839163474,3.96533329328807 " stroke-width="0" class=""/><path id="path112" style="fill:#f1501b;fill-opacity:1;fill-rule:nonzero;stroke:none" d="m239.8453309111739,294.9480013814645 l3.0466666358988705,-131.40399867297214 c-2.24799997729781,-0.9333333239077501 -4.5173332877135115,-1.8039999817816943 -6.830666597684862,-2.515999974591321 l-80.05866585816709,120.08533212061087 l83.84266581995307,13.834666526952596 " stroke-width="0" class=""/><path id="path114" style="fill:#f36019;fill-opacity:1;fill-rule:nonzero;stroke:none" d="m239.8453309111739,294.9480013814645 l-54.982666111405564,43.60666622628996 c1.7106666493909193,0.3839999961220458 3.4106666322228927,1.013333323099843 4.983999949667386,1.609333317080935 c2.933333303710072,1.113333322089959 7.830666587586024,5.217333280644324 7.830666587586024,5.217333280644324 c2.5573333075072355,1.707999982751183 5.4986666111365174,3.7546666287488923 6.33333326937402,6.707999932256988 c0.6559999933751616,2.3266666431700345 -0.6159999937791152,4.835999951162015 -1.4906666516126639,7.08666659509956 c-1.149333321726401,2.9533333035080953 -4.842666617761355,8.199999917189519 -4.842666617761355,8.199999917189519 c-1.8733333144148416,3.1586666347678003 -3.7146666291528456,6.467999934680709 -4.47333328815786,10.05999989840568 c-0.07066666595301538,0.33333332996705367 -0.11999999878813931,0.7213333260487041 -0.15199999846497647,1.1386666551674551 l92.90666572841718,11.953333212618544 l-46.11333286764221,-95.57999903475296 " stroke-width="0" class=""/><path id="path116" style="fill:#f36019;fill-opacity:1;fill-rule:nonzero;stroke:none" d="m153.74399844736408,373.5173339213388 c2.6079999736622277,-3.4399999652599935 7.403999925228196,-9.123999907858193 7.403999925228196,-9.123999907858193 c1.7786666487041982,-2.2093333110216316 2.962666636747173,-4.862666617559379 4.097333291955024,-7.454666591383187 c0.5426666611863634,-1.242666654117176 0.9213333240289363,-2.547999974268158 1.297333320231773,-3.8546666277390083 l-23.954666424752343,18.998666474802192 l11.155999887337352,1.4346666521781988 " stroke-width="0" class=""/><path id="path118" style="fill:#f3611b;fill-opacity:1;fill-rule:nonzero;stroke:none" d="m193.05199805039894,378.5746672035989 c-0.1826666648219454,2.3213333098905617 0.15199999846497647,5.5706666104094005 0.15199999846497647,5.5706666104094005 c0,5.4639999448199426 1.689333316273028,10.826666557329903 3.3519999661486914,16.030666504775546 c1.3199999866695324,4.130666624951729 3.7346666289508694,7.843999920784706 5.218666613964192,11.929333212860916 c1.503999984811346,4.135999958231202 3.7266666290316595,12.671999872027513 3.7266666290316595,12.671999872027513 c1.1893333213224473,4.047999959119899 0,10.805333224212012 0,12.671999872027513 c0,1.8679999811353687 -0.20533333125970504,10.019999898809633 0.7453333258063319,14.909333182766375 c0.5813333274625416,2.969333303346514 0.7866666587222466,6.490666601118469 2.9813333032253277,8.570666580112883 c1.3133333200701913,1.242666654117176 5.218666613964192,1.4906666516126639 5.218666613964192,1.4906666516126639 c1.4573333186159585,0.41599999579888297 2.2159999776209727,-2.4959999747932975 3.7266666290316595,-2.6066666403423597 c1.1079999888104863,-0.0813333325119611 2.982666636545196,1.4906666516126639 2.982666636545196,1.4906666516126639 c1.894666647532733,0.9439999904666959 2.858666637797452,3.3733332992665828 4.849333284360696,4.097333291955024 c2.6799999729351116,0.9853333233826105 5.709333275675695,0 8.569333246793015,0 h3.727999962351528 c1.4493333186967494,0 3.014666636222033,-0.9706666568640603 3.7253332957117915,-2.230666644139523 c0.3093333302094258,-0.546666661145968 0,-1.8666666478155003 0,-1.8666666478155003 c0,-1.6879999829531596 2.983999969865064,1.491999984932532 4.103999958554365,2.982666636545196 c1.1159999887296954,1.491999984932532 5.703999942396222,3.5773332972064193 8.201333250509387,2.2359999774189956 l1.5093333180908188,-0.8146666584394792 l8.898666576800464,-22.213333109004456 c-0.21333333117891434,-0.5119999948293944 -0.34799999648560404,-0.8266666583182931 -0.34799999648560404,-0.8266666583182931 c-1.2586666539555944,-3.1466666348889865 -7.454666591383187,-4.841333284441488 -8.945333242995853,-4.841333284441488 c-1.491999984932532,0 -7.07199992858101,-4.049333292439767 -10.435999894608514,-6.33999993597336 c-3.2226666341214747,-2.1959999778229493 -6.798666598008026,-4.103999958554365 -9.315999905919217,-7.08666659509956 c-1.9013333141320738,-2.2493333106176783 -4.103999958554365,-7.823999920986683 -4.103999958554365,-7.823999920986683 c-1.367999986184788,-2.6199999735410415 -1.9693333134453528,-5.629333276483602 -2.2359999774189956,-8.574666580072488 c-0.2999999969703483,-3.3453332995493503 0.7453333258063319,-10.05999989840568 0.7453333258063319,-10.05999989840568 c0.2266666643775965,-3.0786666355757073 3.7066666292336365,-4.979999949707782 5.963999939770523,-7.08666659509956 c1.689333316273028,-1.5746666507643614 5.594666610167028,-4.097333291955024 5.594666610167028,-4.097333291955024 c1.1973333212416568,-0.8813333244328899 3.050666635858475,-0.45866666203466583 4.471999954837991,0 c2.031999979479159,0.6506666600956887 5.218666613964192,3.727999962351528 5.218666613964192,3.727999962351528 c4.246666623780263,3.0359999693399247 8.535999913796308,6.066666605400377 12.297333209144544,9.690666568802184 c2.3453333096481894,2.2639999771362285 3.8986666272946593,5.286666613277471 6.33999993597336,7.454666591383187 c1.3333333198682147,1.1906666546423155 2.721333305851026,2.8933333041140257 4.471999954837991,2.982666636545196 c1.1399999884873235,0.0546666661145968 2.0653333124758646,0.6226666603784562 2.8119999716020647,1.5973333172021211 l8.686666578941418,-21.682666447696906 l-92.90666572841718,-11.953333212618544 " stroke-width="0" class=""/><path id="path120" style="fill:#f3611b;fill-opacity:1;fill-rule:nonzero;stroke:none" d="m147.7573318411558,382.2653338329941 c1.7973333151823534,-2.7666666387265453 3.5999999636441795,-5.527999944173618 5.561333277170323,-8.181333250711365 c0.13199999866695325,-0.179999998182209 0.2759999972127204,-0.3706666629233637 0.42533332903796045,-0.5666666609439912 l-11.155999887337352,-1.4346666521781988 l5.169333281129068,10.182666563833555 " stroke-width="0" class=""/><path id="path122" style="fill:#f14c30;fill-opacity:1;fill-rule:nonzero;stroke:none" d="m142.54933189375055,390.0626670875834 c1.8119999817009036,-2.547999974268158 3.5066666312534043,-5.174666614408541 5.207999947405247,-7.797333254589319 l-5.169333281129068,-10.182666563833555 l-0.03866666627617823,17.979999818422872 " stroke-width="0" class=""/><path id="path124" style="fill:#f2561a;fill-opacity:1;fill-rule:nonzero;stroke:none" d="m156.00266509122085,281.1133348545119 l-13.414666531194106,90.96933241464868 l23.954666424752343,-18.998666474802192 c0.385333329441914,-1.3453333197470285 0.7666666589242234,-2.6933333061337934 1.3146666533900595,-3.975999959847016 c1.149333321726401,-2.7079999726523436 1.8813333143340507,-5.8813332739386945 4.097333291955024,-7.823999920986683 c1.8866666476135237,-1.6626666498756637 7.083999928459824,-2.6119999736218324 7.083999928459824,-2.6119999736218324 c1.8346666481386633,-0.6759999931731848 3.8373332945807217,-0.5626666609843866 5.823999941184361,-0.1173333321484029 l54.982666111405564,-43.60666622628996 l-83.84266581995307,-13.834666526952596 " stroke-width="0" class=""/><path id="path126" style="fill:#f03e1e;fill-opacity:1;fill-rule:nonzero;stroke:none" d="m236.06133094938792,161.02800273390096 c-1.1039999888508816,-0.3399999965663947 -2.219999977580577,-0.6439999934963476 -3.3466666328692187,-0.8999999909110449 c-5.594666610167028,-1.2653333205549357 -11.407999884792444,-1.4706666518146405 -17.14666649350524,-1.491999984932532 l-47.483999520466725,-0.13199999866695325 l-12.081333211325893,122.60933209512142 l80.05866585816709,-120.08533212061087 " stroke-width="0" class=""/><path id="path128" style="fill:#e4352c;fill-opacity:1;fill-rule:nonzero;stroke:none" d="m80.63119918571849,482.17733282399894 c-1.5937333172384769,3.4893332980951177 -5.588533276895634,10.05999989840568 -5.588533276895634,10.05999989840568 c-2.159866644854521,3.8853332940959775 -3.9322666269553386,7.9759999194516595 -5.962933273114629,11.929333212860916 c-1.0937333222878964,2.126666645189802 -2.955199970155911,3.9799999598066207 -3.358399966084059,6.338666602653492 c-0.2661333306456956,1.6079999837610668 0.7469333257901738,4.849333284360696 0.7469333257901738,4.849333284360696 c0.3275999966916203,2.119999978590461 -0.2813333304921933,4.7053332858149295 1.1207999886812212,6.33333326937402 c0.5130666614852889,0.5946666606612236 2.2359999774189956,0.7453333258063319 2.2359999774189956,0.7453333258063319 c0.9509333237300106,0.3146666634888986 1.7446666490475589,-1.9893333132433761 2.605599973686465,-1.4906666516126639 c0.6495999934397941,0.3773333295227047 -0.1093333322291936,1.497333318212005 0,2.2359999774189956 c0.25319999744297395,1.6693333164750046 0.7870666587182071,3.3106666332327768 1.491199984940611,4.841333284441488 c0.6843999930883545,1.4799999850537182 1.2103999877763651,3.2853333001552807 2.61253330694978,4.105333291874232 c0,0 2.8046666383427894,2.1599999781865074 4.472933288161899,2.610666640301964 c1.320266653333506,0.3573333297246815 3.4879999647752493,1.2186666543595481 4.096799958627076,0 c0,0 0.38906666273754503,-2.8493333045583746 1.4901333182847167,-2.9813333032253277 c1.1431999884550073,-0.14266666522589896 1.1630666549210438,2.2173333109408406 2.236399977414956,2.6066666403423597 c0,0 2.7499999722281925,1.3879999859828114 4.104266625218338,1.4906666516126639 c1.3541333196581589,0.10266666562985252 3.3510666328247836,0.4666666619538751 3.72706662902762,-0.7439999924864638 c0,0 0.02813333304921933,-3.995999959645039 1.4910666516086244,-4.843999951081224 c0.9922666566459253,-0.5813333274625416 2.2094666443536184,0.7386666592069909 3.351599966152731,0.7386666592069909 c0,0 1.5317333178646049,0.23199999765706936 2.2365333107469434,0 c1.018666656379316,-0.3213333300882397 2.1202666452544348,-0.9079999908302542 2.6114666402938846,-1.8599999812161592 c0.7937333253175481,-1.5453333177272606 -1.4766666517540477,-4.307999956494202 0,-5.217333280644324 c0.9442666571306696,-0.5826666607824098 2.9827999698771825,1.4893333182927957 2.9827999698771825,1.4893333182927957 c1.510933318074661,0.7586666590050142 3.6379999632604236,-0.3066666635696893 4.841599951105461,-1.4893333182927957 c0.45626666205890304,-0.44533332883598364 0.8103999918159008,-0.9639999902647192 1.0969333222555802,-1.5253333179292374 l-32.04533300971267,-46.66133286210803 c-0.788533325370062,2.1773333113447944 -1.6327999835106157,4.333333289571697 -2.597466640435269,6.438666601643608 " stroke-width="0" class=""/><path id="path130" style="fill:#f0411e;fill-opacity:1;fill-rule:nonzero;stroke:none" d="m101.67399897321063,377.37600054903737 c-0.0937333323867355,11.961333212537753 0.20666666457957328,26.150666402575293 0.20666666457957328,26.150666402575293 c0,3.994666626325171 -0.7451999924743452,10.437333227928384 -1.1222666553330762,11.927999879541046 c-0.36879999627554816,1.4906666516126639 -2.6053333070224913,11.927999879541046 -2.9813333032253277,13.418666531153711 c-0.3691999962715086,1.4906666516126639 -2.9811999698933414,14.163999856960045 -3.351599966152731,16.40133316769891 c-0.37599999620283653,2.2359999774189956 -4.519733287689275,11.659999882247536 -6.708799932248909,17.521333156388206 c-1.5969333172061606,4.269333290218023 -2.933333303710072,8.649333245985108 -4.48799995467641,12.942666535960758 l32.04533300971267,46.66133286210803 c0.9457333237825246,-1.8599999812161592 1.1114666554421437,-4.231999957261713 1.5155999846941997,-6.305333269656787 c0.383866662790059,-1.957333313566539 0.3754666628748892,-5.963999939770523 0.3754666628748892,-5.963999939770523 c0,0 -0.6833333264324599,-19.629333135099856 -0.3754666628748892,-29.442666369329913 c0.1577333317404098,-4.985333282987255 1.1213333220091686,-14.909333182766375 1.1213333220091686,-14.909333182766375 c0.8354666582294232,-11.182666553734716 4.096933291959063,-22.105333110095128 7.448399924779807,-32.801333002077946 c1.6895999829370016,-5.367999945789432 6.340666602633294,-15.654666508572706 6.340666602633294,-15.654666508572706 c2.1399999783884844,-5.287999946597338 1.0869333223565685,-11.543999883419001 3.355999966108296,-16.769333163982534 c1.6973333161922373,-3.9266666270118917 7.455999924703056,-10.438666561248253 7.455999924703056,-10.438666561248253 l0.037333332956310014,-0.05199999947486038 l0.03866666627617823,-17.979999818422872 l-40.913999586816104,5.293333279876812 " stroke-width="0" class=""/><path id="path132" style="fill:#e93e1f;fill-opacity:1;fill-rule:nonzero;stroke:none" d="m112.78386552768055,254.9466684520982 c-0.5125333281573418,3.9666666266079385 -0.8421333248287644,6.9413332632339255 -0.8421333248287644,6.9413332632339255 c-1.1083999888064469,7.522666590696467 -1.8474666480093982,15.134666513824104 -1.861066647872054,22.7399997703524 c-0.005599999943446503,2.689333306174189 0.0943999990466696,5.381333278988114 0.27813333052450956,8.067999918522567 l45.643866205716606,-11.58266654969518 l-43.218799563540294,-26.16666640241371 " stroke-width="0" class=""/><path id="path134" style="fill:#de2125;fill-opacity:1;fill-rule:nonzero;stroke:none" d="m72.06199927225747,139.25333628713327 c0,0 -9.875066566939958,-3.665333296317722 -14.910399849422271,-5.209333280725114 c-5.039066615777943,-1.5613333175656794 -10.435999894608514,-3.7359999622707374 -15.284399845645304,-4.103999958554365 c-4.842133284433408,-0.36933332960349546 -22.892133102149362,-1.8626666478558958 -17.146399826841268,-1.8626666478558958 c1.9630666468419724,0 -6.9973332626683895,-0.3133333301690304 -10.806266557535919,0.3706666629233637 c-2.8650533043996207,0.5199999947486037 -8.200466583851474,2.982666636545196 -8.200466583851474,2.982666636545196 c-2.229173310821271,0.8066666585202698 -4.266666623578287,2.6666666397364294 -5.2171919473124175,4.841333284441488 c-0.8489586580931697,1.9426666470479887 -0.44531212883619775,4.2759999568173646 0,6.33999993597336 c0.31354266350024973,1.4706666518146405 1.0317653229137014,2.853333304517979 1.8593786478891008,4.097333291955024 c1.3203066533331023,1.9826666466440352 2.852079971197303,3.9386666268907056 4.848959951031133,5.225333280563532 c3.238013300633158,2.0839999789540196 7.241719926867035,2.551999974227763 10.955719889359948,3.6613332963581176 l54.831732779596486,-15.84666650663373 l-0.9306666572680138,-0.49599999499097586 " stroke-width="0" class=""/><path id="path136" style="fill:#ed3520;fill-opacity:1;fill-rule:nonzero;stroke:none" d="m112.78386552768055,254.9466684520982 l43.218799563540294,26.16666640241371 l12.081333211325893,-122.60933209512142 l-19.054666474236654,-0.053333332794728586 c-11.878666546705924,-0.03199999967683715 -23.786133093121,1.8413333147380044 -35.590266307246296,1.3066666534708504 c-1.9015999807960478,-0.0813333325119611 -7.830666587586024,-2.9813333032253277 -12.673999872007315,-4.841333284441488 c-4.847866617708841,-1.8666666478155003 -7.399999925268591,-4.329333289612093 -11.181733220410807,-6.33999993597336 l-16.590666499120196,-8.82666657752758 l-54.831732779596486,15.84666650663373 c0.4515999954393643,0.13466666530668966 0.8994666575830976,0.27733333053258863 1.341199986455437,0.43466666227703793 c5.25986661354812,1.8799999810141825 10.177066563890108,6.189333270828253 15.654666508572706,5.963999939770523 c5.6019999434263035,-0.2253333310577283 7.872399920497899,0.9093333241501224 11.928133212873034,4.471999954837991 c2.797866638411462,2.4559999751972517 8.945733242991812,6.710666598896724 8.945733242991812,6.710666598896724 c3.6662666296416297,2.7493333055682587 7.188133260741532,5.715999942275036 10.437599894592356,8.943999909675982 c2.6858666395425312,2.6679999730562978 7.4535999247272935,8.577333246712223 7.4535999247272935,8.577333246712223 c3.7343999622868953,4.2946666232955195 8.815599910972676,7.303999926238079 13.794799860688535,10.061333231725547 c4.684933286020946,2.5906666405039407 14.908799849438429,5.9626666064506555 14.908799849438429,5.9626666064506555 c3.3042666332974093,1.3213333199894006 6.340133269305348,3.275999966916203 9.691733235458079,4.47333328815786 c2.1130666453271467,0.7506666590858048 6.524533267443121,1.6746666497544775 6.524533267443121,1.6746666497544775 c8.794666577850743,2.2653333104560964 -1.5729333174485327,17.411999824159015 -3.542799964221833,26.277333067962775 c-0.9286666572882114,4.178666624466985 -1.8671999811434477,10.782666557774252 -2.515066641267413,15.798666507118474 " stroke-width="0" class=""/><path id="path138" style="fill:#f14d1c;fill-opacity:1;fill-rule:nonzero;stroke:none" d="m156.00266509122085,281.1133348545119 l-45.643866205716606,11.58266654969518 c0.25053333080323753,3.6613332963581176 0.6605333266627135,7.313333259477157 1.2125333210881541,10.938666556198832 c0.6703999932297382,4.410666622124054 2.756799972159521,8.589333246591039 2.9827999698771825,13.041333201631007 c0.10213333230190526,2.0053333130817945 -0.746799992458187,5.963999939770523 -0.746799992458187,5.963999939770523 c-0.5942666606652632,4.766666618528867 -4.848533284368775,11.927999879541046 -5.218266613968232,13.418666531153711 c-0.3139999968289645,1.2506666540363853 -3.4713332982768965,6.838666597604073 -4.732799952204215,11.569333216496497 l38.73173294218779,24.454666419702924 l13.414666531194106,-90.96933241464868 " stroke-width="0" class=""/><path id="path140" style="fill:#f1471d;fill-opacity:1;fill-rule:nonzero;stroke:none" d="m103.85626561783894,347.62800084945764 c-0.2422666642200546,0.9106666574699905 -0.41613332913086976,1.790666648583012 -0.48439999510812237,2.601333307062887 c0,0 -1.2458666540848595,11.659999882247536 -1.491199984940611,17.51466648978887 c-0.11559999883257421,2.727999972450367 -0.17799999820240664,6.082666605238795 -0.20666666457957328,9.631999902727982 l40.913999586816104,-5.293333279876812 l-38.73173294218779,-24.454666419702924 " stroke-width="0" class=""/></g></svg>