<?xml version="1.0" encoding="UTF-8" standalone="no"?>
<svg
   xmlns:dc="http://purl.org/dc/elements/1.1/"
   xmlns:cc="http://creativecommons.org/ns#"
   xmlns:rdf="http://www.w3.org/1999/02/22-rdf-syntax-ns#"
   xmlns:svg="http://www.w3.org/2000/svg"
   xmlns="http://www.w3.org/2000/svg"
   viewBox="0 0 790.25336 822.82666"
   height="822.82666"
   width="790.25336"
   xml:space="preserve"
   id="svg2"
   version="1.1"><metadata
     id="metadata8"><rdf:RDF><cc:Work
         rdf:about=""><dc:format>image/svg+xml</dc:format><dc:type
           rdf:resource="http://purl.org/dc/dcmitype/StillImage" /></cc:Work></rdf:RDF></metadata><defs
     id="defs6" /><g
     transform="matrix(1.3333333,0,0,-1.3333333,0,822.82667)"
     id="g10"><g
       transform="scale(0.1)"
       id="g12"><path
         id="path14"
         style="fill:#918f8f;fill-opacity:1;fill-rule:nonzero;stroke:none"
         d="m 2058.93,0.0195313 c -4.41,0 -7.38,1.3515587 -8.82,4.1406287 -1.44,2.8789 -2.16,6.92964 -2.16,12.32814 V 123.5 c 0,4.68 0.9,8.281 2.97,10.621 1.98,2.25 4.68,3.508 8.01,3.508 3.42,0 6.12,-1.258 8.28,-3.688 2.07,-2.339 3.15,-5.851 3.15,-10.261 v -2.969 c 4.5,5.668 9.09,9.988 13.86,12.598 4.86,2.703 10.35,4.14 16.47,4.14 7.29,0 14.04,-2.07 20.16,-5.937 6.12,-3.961 10.98,-9.723 14.58,-17.282 3.51,-7.558 5.31,-16.4683 5.31,-26.9097 0,-7.5586 -0.99,-14.668 -3.06,-20.9687 -2.07,-6.3907 -4.86,-11.793 -8.46,-16.1133 -3.6,-4.3164 -7.92,-7.6485 -12.78,-9.9883 -4.95,-2.3398 -10.17,-3.5078 -15.75,-3.5078 -6.84,0 -12.6,1.4375 -17.19,4.3164 -4.59,2.793 -9,6.9336 -13.14,12.5117 V 16.3086 c 0,-10.88672 -3.78,-16.2890687 -11.43,-16.2890687 M 2094.75,119 c -6.48,0 -12.06,-2.699 -16.56,-8.102 -4.5,-5.398 -6.75,-13.316 -6.75,-23.7574 0,-9.8984 2.25,-17.5508 6.75,-23.039 4.5,-5.4024 9.99,-8.1914 16.56,-8.1914 3.96,0 7.65,1.1718 11.07,3.6015 3.33,2.3399 6.03,5.9375 8.01,10.7071 2.07,4.7695 3.06,10.621 3.06,17.371 0,6.4805 -0.9,12.1524 -2.88,16.8282 -1.89,4.684 -4.5,8.281 -7.92,10.891 -3.42,2.429 -7.11,3.691 -11.34,3.691" /><path
         id="path16"
         style="fill:#918f8f;fill-opacity:1;fill-rule:nonzero;stroke:none"
         d="m 2232.72,36.7422 c -3.24,0 -5.85,1.2578 -8.01,3.6875 -2.16,2.5195 -3.15,5.8516 -3.15,10.3516 v 3.1484 c -2.88,-3.7774 -5.85,-6.9297 -9,-9.4492 -3.15,-2.5196 -6.57,-4.4102 -10.26,-5.6719 -3.69,-1.2578 -8.01,-1.7969 -12.69,-1.7969 -5.76,0 -10.89,1.168 -15.48,3.6875 -4.5,2.4297 -8.1,5.8516 -10.53,10.2617 -2.97,5.2188 -4.41,12.7774 -4.41,22.6797 v 49.1404 c 0,4.86 0.99,8.641 3.15,11.071 2.16,2.429 5.04,3.687 8.55,3.687 3.6,0 6.48,-1.258 8.73,-3.777 2.16,-2.43 3.24,-6.211 3.24,-10.981 V 83 c 0,-5.6719 0.45,-10.5312 1.35,-14.3984 0.99,-3.961 2.7,-7.0235 5.13,-9.1836 2.34,-2.2461 5.58,-3.3282 9.72,-3.3282 4.05,0 7.83,1.2618 11.34,3.7813 3.51,2.4297 6.12,5.668 7.74,9.6289 1.35,3.5117 1.98,11.25 1.98,23.0391 v 30.2419 c 0,4.77 1.08,8.551 3.33,10.981 2.16,2.519 5.04,3.777 8.55,3.777 3.6,0 6.39,-1.258 8.55,-3.687 2.16,-2.43 3.24,-6.211 3.24,-11.071 V 50.9609 c 0,-4.7695 -0.99,-8.2812 -3.15,-10.6211 -1.98,-2.4296 -4.68,-3.5976 -7.92,-3.5976" /><path
         id="path18"
         style="fill:#918f8f;fill-opacity:1;fill-rule:nonzero;stroke:none"
         d="m 2319.93,36.7422 c -3.69,0 -7.11,0.4492 -10.35,1.3476 -3.24,0.8985 -5.94,2.1602 -8.19,3.6016 -2.25,1.4375 -4.23,3.0586 -5.76,4.5899 -1.62,1.6171 -3.69,3.957 -6.3,7.1093 v -2.4297 c 0,-4.6796 -1.17,-8.1914 -3.33,-10.6211 -2.07,-2.4296 -4.86,-3.5976 -8.1,-3.5976 -3.42,0 -6.03,1.168 -8.1,3.5976 -1.98,2.4297 -2.97,5.9415 -2.97,10.6211 V 159.141 c 0,5.039 0.99,8.82 2.97,11.339 1.89,2.61 4.59,3.872 8.1,3.872 3.6,0 6.48,-1.172 8.37,-3.692 2.07,-2.43 3.06,-5.851 3.06,-10.441 v -37.891 c 4.41,4.953 9,8.551 13.59,11.25 4.68,2.524 10.44,3.871 17.28,3.871 7.83,0 14.76,-2.07 20.7,-5.847 5.94,-4.051 10.62,-9.633 13.86,-17.012 3.24,-7.469 4.95,-16.1994 4.95,-26.3712 0,-7.5586 -0.99,-14.3985 -2.79,-20.6993 -1.8,-6.3007 -4.41,-11.6992 -7.92,-16.289 -3.51,-4.5899 -7.74,-8.1016 -12.69,-10.711 -4.95,-2.5195 -10.44,-3.7773 -16.38,-3.7773 M 2313.9,119 c -4.59,0 -8.55,-1.262 -12.06,-3.871 -3.6,-2.52 -6.3,-6.297 -8.37,-11.16 -2.07,-4.8596 -3.06,-10.6174 -3.06,-17.3674 0,-9.9024 2.16,-17.461 6.48,-22.7696 4.32,-5.3125 9.99,-7.9218 17.01,-7.9218 6.03,0 11.16,2.6992 15.48,8.1015 4.32,5.3985 6.48,13.1367 6.48,23.3086 0,6.5703 -0.9,12.1485 -2.7,16.8277 -1.8,4.774 -4.41,8.461 -7.65,10.981 -3.33,2.609 -7.2,3.871 -11.61,3.871" /><path
         id="path20"
         style="fill:#918f8f;fill-opacity:1;fill-rule:nonzero;stroke:none"
         d="m 2388.15,36.7422 c -3.51,0 -6.3,1.3476 -8.46,3.957 -2.16,2.6094 -3.24,6.3008 -3.24,11.1602 V 159.32 c 0,4.95 1.08,8.731 3.15,11.25 2.16,2.52 4.95,3.782 8.55,3.782 3.6,0 6.48,-1.172 8.73,-3.692 2.16,-2.519 3.33,-6.301 3.33,-11.34 V 51.8594 c 0,-5.0391 -1.17,-8.8203 -3.42,-11.3399 -2.16,-2.5195 -5.13,-3.7773 -8.64,-3.7773" /><path
         id="path22"
         style="fill:#918f8f;fill-opacity:1;fill-rule:nonzero;stroke:none"
         d="m 2436.48,36.7422 c -3.51,0 -6.3,1.3476 -8.55,3.8672 -2.16,2.6992 -3.24,6.3906 -3.24,11.25 v 70.9216 c 0,4.77 1.08,8.551 3.24,10.981 2.25,2.519 5.04,3.777 8.55,3.777 3.42,0 6.3,-1.258 8.55,-3.777 2.25,-2.43 3.42,-5.942 3.42,-10.352 V 51.8594 c 0,-5.0391 -1.17,-8.7305 -3.42,-11.3399 -2.25,-2.4297 -5.13,-3.7773 -8.55,-3.7773 m 0.18,112.3168 c -3.24,0 -6.12,1.082 -8.46,3.242 -2.34,2.07 -3.51,5.129 -3.51,9 0,3.508 1.17,6.39 3.6,8.64 2.43,2.34 5.22,3.329 8.37,3.329 3.06,0 5.85,-0.989 8.19,-2.969 2.43,-2.071 3.6,-5.129 3.6,-9 0,-3.871 -1.17,-6.84 -3.51,-8.91 -2.34,-2.161 -5.04,-3.332 -8.28,-3.332" /><path
         id="path24"
         style="fill:#918f8f;fill-opacity:1;fill-rule:nonzero;stroke:none"
         d="m 2514.96,37.0117 c -14.67,0 -26.1,4.4102 -34.29,13.3164 -8.28,8.9141 -12.42,20.8828 -12.42,35.9102 0,10.1719 1.89,19.1717 5.67,26.9997 3.78,7.742 9.27,13.774 16.38,18.094 7.11,4.227 15.66,6.387 25.56,6.387 6.12,0 11.79,-0.989 16.92,-2.789 5.13,-1.891 9.45,-4.321 13.05,-7.289 3.51,-2.969 6.3,-6.121 8.19,-9.45 1.89,-3.421 2.79,-6.57 2.79,-9.453 0,-2.879 -1.08,-5.398 -3.15,-7.468 -2.16,-2.0708 -4.68,-3.1489 -7.74,-3.1489 -1.98,0 -3.6,0.6289 -4.86,1.6211 -1.35,1.0778 -2.79,2.6988 -4.41,5.1288 -2.88,4.59 -5.94,8.008 -9.09,10.438 -3.15,2.25 -7.2,3.421 -12.06,3.421 -7.02,0 -12.69,-2.878 -17.01,-8.64 -4.23,-5.758 -6.39,-13.5002 -6.39,-23.4884 0,-4.5899 0.54,-8.9102 1.62,-12.8711 1.17,-3.8711 2.7,-7.1992 4.77,-9.9922 2.16,-2.6992 4.68,-4.7695 7.65,-6.207 2.88,-1.4415 6.21,-2.1602 9.72,-2.1602 4.77,0 8.82,1.168 12.24,3.418 3.33,2.3398 6.39,5.8515 8.91,10.5312 1.53,2.8789 3.06,5.0391 4.77,6.5703 1.71,1.6211 3.78,2.3399 6.21,2.3399 2.88,0 5.31,-1.0821 7.2,-3.4219 1.89,-2.3398 2.88,-4.7695 2.88,-7.3789 0,-3.0586 -0.9,-6.3906 -2.7,-9.8984 -1.8,-3.5118 -4.41,-6.8399 -8.1,-9.9922 -3.6,-3.1485 -8.19,-5.7578 -13.68,-7.6485 -5.49,-1.9804 -11.7,-2.8789 -18.63,-2.8789" /><path
         id="path26"
         style="fill:#918f8f;fill-opacity:1;fill-rule:nonzero;stroke:none"
         d="m 2655,36.7422 c -3.15,0 -5.85,1.2578 -8.01,3.6875 -2.16,2.4297 -3.15,5.9414 -3.15,10.5312 v 2.4297 c -3.24,-3.8711 -6.39,-6.9297 -9.45,-9.2695 -3.06,-2.4297 -6.48,-4.2305 -10.08,-5.4922 -3.6,-1.2578 -7.56,-1.8867 -11.88,-1.8867 -5.67,0 -10.98,1.2578 -15.75,3.7773 -4.86,2.6094 -9.09,6.1211 -12.6,10.8008 -3.51,4.5899 -6.21,10.082 -8.01,16.4688 -1.89,6.2109 -2.79,13.0507 -2.79,20.4297 0,15.3902 3.69,27.5432 10.89,36.1792 7.29,8.641 16.83,13.051 28.62,13.051 6.84,0 12.6,-1.258 17.28,-3.777 4.68,-2.434 9.27,-6.211 13.77,-11.344 v 36.633 c 0,5.129 0.99,8.91 2.88,11.519 1.98,2.61 4.68,3.872 8.28,3.872 3.6,0 6.39,-1.172 8.37,-3.512 1.89,-2.43 2.88,-5.942 2.88,-10.621 V 50.9609 c 0,-4.7695 -0.99,-8.2812 -3.15,-10.6211 -2.07,-2.4296 -4.77,-3.5976 -8.1,-3.5976 M 2619.54,119 c -4.32,0 -8.19,-1.262 -11.61,-3.871 -3.42,-2.52 -6.03,-6.297 -7.92,-11.07 -1.89,-4.8598 -2.88,-10.3481 -2.88,-16.7387 0,-6.75 0.99,-12.4219 3.06,-17.1914 1.98,-4.7695 4.68,-8.2773 8.1,-10.6172 3.6,-2.4297 7.38,-3.6015 11.43,-3.6015 4.23,0 8.01,1.1718 11.43,3.332 3.51,2.3359 6.21,5.8476 8.28,10.5273 2.07,4.6797 3.06,10.5313 3.06,17.5508 0,6.5703 -0.99,12.2383 -3.06,17.0117 -2.07,4.77 -4.86,8.367 -8.37,10.977 -3.51,2.429 -7.29,3.691 -11.52,3.691" /><path
         id="path28"
         style="fill:#918f8f;fill-opacity:1;fill-rule:nonzero;stroke:none"
         d="m 2731.59,36.7422 c -7.2,0 -13.68,1.168 -19.35,3.6875 -5.76,2.3398 -10.8,5.8516 -14.94,10.3516 -4.23,4.5 -7.38,9.8085 -9.63,15.9296 -2.16,6.211 -3.24,12.961 -3.24,20.4297 0,7.4688 1.17,14.3084 3.33,20.6094 2.16,6.211 5.31,11.52 9.45,15.93 4.14,4.41 9.09,7.832 15.03,10.261 5.85,2.34 12.24,3.598 19.35,3.598 7.2,0 13.77,-1.258 19.62,-3.687 5.76,-2.43 10.8,-5.852 15.03,-10.352 4.14,-4.5 7.29,-9.809 9.45,-16.02 2.25,-6.121 3.33,-12.9605 3.33,-20.4292 0,-7.2891 -1.17,-14.1289 -3.33,-20.4297 -2.16,-6.1211 -5.4,-11.5195 -9.54,-16.0195 -4.23,-4.5 -9.18,-7.8321 -14.94,-10.2618 -5.85,-2.4296 -12.42,-3.5976 -19.62,-3.5976 m 0,82.3478 c -4.68,0 -8.73,-1.262 -12.24,-3.781 -3.51,-2.52 -6.3,-6.207 -8.19,-11.161 -1.89,-4.7691 -2.88,-10.5269 -2.88,-17.0972 0,-6.4805 0.99,-12.0625 2.79,-16.9219 1.89,-4.8594 4.59,-8.5508 8.19,-11.1601 3.42,-2.5196 7.65,-3.7774 12.33,-3.7774 7.2,0 12.96,2.7891 17.19,8.457 4.23,5.5821 6.39,13.5 6.39,23.4024 0,10.0781 -2.16,18.0002 -6.39,23.6682 -4.23,5.582 -9.99,8.371 -17.19,8.371" /><path
         id="path30"
         style="fill:#918f8f;fill-opacity:1;fill-rule:nonzero;stroke:none"
         d="m 2919.87,36.7422 c -3.6,0 -6.48,1.3476 -8.82,4.0469 -2.25,2.5195 -3.42,6.4804 -3.42,11.6093 v 41.6719 c 0,5.3985 -0.27,9.6287 -0.63,12.8707 -0.45,3.239 -1.62,5.848 -3.6,8.008 -1.89,2.25 -4.77,3.332 -8.64,3.332 -3.15,0 -6.12,-0.992 -8.91,-2.883 -2.88,-1.976 -4.95,-4.589 -6.57,-7.828 -1.8,-4.23 -2.61,-11.6091 -2.61,-22.2302 V 52.3984 c 0,-5.2187 -1.08,-9.0898 -3.42,-11.6992 -2.25,-2.6094 -5.22,-3.957 -8.91,-3.957 -3.6,0 -6.57,1.3476 -8.73,3.957 -2.25,2.6094 -3.33,6.4805 -3.33,11.6992 v 39.5118 c 0,6.2109 -0.27,11.0698 -0.63,14.5778 -0.45,3.422 -1.53,6.211 -3.33,8.461 -1.8,2.25 -4.59,3.332 -8.46,3.332 -7.83,0 -12.87,-2.789 -15.39,-8.371 -2.52,-5.578 -3.69,-13.5897 -3.69,-24.0311 V 52.3984 c 0,-5.1289 -1.08,-9.0898 -3.33,-11.6093 -2.25,-2.6993 -5.22,-4.0469 -8.82,-4.0469 -3.6,0 -6.57,1.3476 -8.82,4.0469 -2.34,2.5195 -3.42,6.4804 -3.42,11.6093 V 123.32 c 0,4.68 0.99,8.192 3.06,10.621 2.07,2.43 4.77,3.688 8.1,3.688 3.24,0 6.03,-1.168 8.19,-3.418 2.16,-2.25 3.24,-5.402 3.24,-9.449 v -2.34 c 4.05,5.129 8.46,8.91 13.23,11.34 4.68,2.429 9.9,3.687 15.66,3.687 5.94,0 10.98,-1.258 15.3,-3.777 4.32,-2.434 7.83,-6.211 10.62,-11.25 3.96,5.039 8.28,8.91 12.87,11.34 4.59,2.429 9.63,3.687 15.21,3.687 6.57,0 12.15,-1.347 16.83,-4.051 4.68,-2.699 8.19,-6.48 10.53,-11.429 1.98,-4.5 3.06,-11.52 3.06,-21.149 V 52.3984 c 0,-5.2187 -1.17,-9.0898 -3.42,-11.6992 -2.25,-2.6094 -5.22,-3.957 -9,-3.957" /><path
         id="path32"
         style="fill:#918f8f;fill-opacity:1;fill-rule:nonzero;stroke:none"
         d="m 3030.12,36.7422 c -2.43,0 -4.86,1.168 -7.29,3.5976 -2.34,2.4297 -4.86,5.8516 -7.56,10.3516 -5.76,-4.5898 -11.25,-8.1016 -16.65,-10.4414 -5.31,-2.3398 -11.34,-3.5078 -18,-3.5078 -6.12,0 -11.43,1.2578 -16.11,3.7773 -4.59,2.5196 -8.1,5.9414 -10.62,10.2618 -2.52,4.3203 -3.78,8.9101 -3.78,13.9492 0,6.75 2.16,12.5117 6.21,17.3711 4.14,4.6797 9.81,7.9179 16.92,9.539 1.53,0.4492 5.31,1.168 11.25,2.4297 6.03,1.3516 11.07,2.5195 15.39,3.5117 4.23,1.0782 8.91,2.3399 13.86,3.867 -0.27,6.571 -1.53,11.34 -3.78,14.492 -2.25,2.969 -6.93,4.5 -13.86,4.5 -6.03,0 -10.53,-0.812 -13.68,-2.613 -2.97,-1.707 -5.58,-4.406 -7.74,-7.918 -2.25,-3.508 -3.78,-5.851 -4.68,-6.93 -0.9,-1.171 -2.79,-1.71 -5.76,-1.71 -2.7,0 -4.95,0.902 -6.84,2.699 -1.98,1.801 -2.97,4.051 -2.97,6.84 0,4.41 1.44,8.64 4.41,12.691 2.97,4.141 7.56,7.559 13.86,10.262 6.21,2.609 14.04,3.957 23.4,3.957 10.44,0 18.63,-1.348 24.66,-3.867 5.94,-2.52 10.08,-6.571 12.6,-12.243 2.43,-5.488 3.69,-12.961 3.69,-22.1402 0,-5.7579 0,-10.7071 0,-14.7579 -0.09,-4.1406 -0.09,-8.6406 -0.18,-13.5898 0,-4.5898 0.72,-9.543 2.25,-14.4922 1.44,-5.0391 2.16,-8.3672 2.16,-9.8086 0,-2.5195 -1.17,-4.8594 -3.42,-6.9297 -2.25,-2.0703 -4.86,-3.1484 -7.74,-3.1484 m -16.38,49.8594 c -3.51,-1.3516 -8.55,-2.6993 -15.21,-4.2305 -6.57,-1.4414 -11.25,-2.5195 -13.77,-3.2422 -2.52,-0.7187 -4.95,-2.0703 -7.29,-4.1406 -2.34,-2.0664 -3.51,-4.8594 -3.51,-8.457 0,-3.7813 1.35,-7.0196 4.14,-9.6329 2.7,-2.6093 6.3,-3.957 10.71,-3.957 4.68,0 9,1.0781 12.96,3.2383 3.96,2.1601 6.93,4.9492 8.73,8.3711 2.16,3.6875 3.24,9.8984 3.24,18.539 v 3.5118" /><path
         id="path34"
         style="fill:#918f8f;fill-opacity:1;fill-rule:nonzero;stroke:none"
         d="m 3072.96,36.7422 c -3.51,0 -6.39,1.3476 -8.55,3.8672 -2.16,2.6992 -3.24,6.3906 -3.24,11.25 v 70.9216 c 0,4.77 1.08,8.551 3.24,10.981 2.16,2.519 5.04,3.777 8.55,3.777 3.51,0 6.3,-1.258 8.55,-3.777 2.25,-2.43 3.42,-5.942 3.42,-10.352 V 51.8594 c 0,-5.0391 -1.17,-8.7305 -3.42,-11.3399 -2.25,-2.4297 -5.04,-3.7773 -8.55,-3.7773 m 0.18,112.3168 c -3.24,0 -6.03,1.082 -8.37,3.242 -2.43,2.07 -3.6,5.129 -3.6,9 0,3.508 1.26,6.39 3.69,8.64 2.34,2.34 5.13,3.329 8.28,3.329 3.15,0 5.85,-0.989 8.28,-2.969 2.34,-2.071 3.51,-5.129 3.51,-9 0,-3.871 -1.17,-6.84 -3.51,-8.91 -2.34,-2.161 -5.04,-3.332 -8.28,-3.332" /><path
         id="path36"
         style="fill:#918f8f;fill-opacity:1;fill-rule:nonzero;stroke:none"
         d="m 3181.68,36.7422 c -3.51,0 -6.39,1.3476 -8.55,3.957 -2.25,2.6094 -3.33,6.3008 -3.33,11.1602 V 93.082 c 0,8.277 -1.08,14.488 -3.24,18.809 -2.25,4.32 -6.57,6.48 -13.05,6.48 -4.23,0 -8.1,-1.351 -11.61,-3.961 -3.42,-2.609 -6.03,-6.211 -7.65,-10.801 -1.08,-3.6871 -1.71,-10.6168 -1.71,-20.7887 V 51.8594 c 0,-5.0391 -1.08,-8.8203 -3.33,-11.3399 -2.25,-2.5195 -5.13,-3.7773 -8.64,-3.7773 -3.42,0 -6.3,1.3476 -8.46,3.8672 -2.25,2.6992 -3.33,6.3906 -3.33,11.25 V 123.41 c 0,4.77 0.99,8.281 2.97,10.621 1.98,2.34 4.68,3.508 8.1,3.508 2.07,0 3.96,-0.539 5.58,-1.617 1.8,-0.992 3.06,-2.524 4.05,-4.59 1.08,-2.07 1.62,-4.59 1.62,-7.562 v -2.969 c 4.14,5.758 8.73,9.988 13.59,12.691 5.04,2.699 10.71,4.047 17.19,4.047 6.21,0 11.79,-1.437 16.74,-4.32 4.95,-2.789 8.64,-6.84 11.07,-11.969 1.53,-3.059 2.52,-6.391 3.06,-9.898 0.36,-3.512 0.72,-7.922 0.72,-13.4106 v -46.082 c 0,-5.0391 -1.17,-8.7305 -3.33,-11.3399 -2.16,-2.4297 -5.04,-3.7773 -8.46,-3.7773" /><path
         id="path38"
         style="fill:#918f8f;fill-opacity:1;fill-rule:nonzero;stroke:none"
         d="m 3250.71,36.7422 c -3.33,0 -6.03,0.8086 -8.01,2.4297 -2.07,1.6172 -3.51,3.3281 -4.5,5.3086 -0.9,1.8008 -2.52,5.5781 -4.77,11.25 l -22.68,58.3205 c -0.54,1.441 -1.08,2.969 -1.62,4.41 -0.54,1.437 -0.99,2.879 -1.35,4.41 -0.36,1.527 -0.54,2.879 -0.54,3.871 0,1.707 0.45,3.418 1.44,5.129 0.99,1.621 2.34,3.059 4.14,4.051 1.71,1.078 3.6,1.617 5.67,1.617 3.87,0 6.57,-1.168 8.1,-3.598 1.44,-2.339 3.15,-6.3 4.95,-11.882 l 19.17,-56.2504 20.7,58.7734 c 1.71,4.68 3.24,8.008 4.86,9.988 1.53,1.981 3.87,2.969 7.11,2.969 2.97,0 5.58,-1.078 7.74,-3.238 2.07,-2.071 3.15,-4.5 3.15,-7.383 0,-1.078 -0.27,-2.336 -0.63,-3.688 -0.36,-1.531 -0.72,-2.878 -1.26,-4.14 -0.54,-1.262 -0.99,-2.789 -1.71,-4.32 L 3267.9,55.7305 c -0.63,-1.711 -1.53,-3.8711 -2.52,-6.4805 -0.99,-2.6094 -2.16,-4.7695 -3.42,-6.6602 -1.26,-1.8007 -2.79,-3.2382 -4.59,-4.3203 -1.8,-0.9882 -4.05,-1.5273 -6.66,-1.5273" /><path
         id="path40"
         style="fill:#918f8f;fill-opacity:1;fill-rule:nonzero;stroke:none"
         d="m 3352.68,36.7422 c -15.3,0 -27.18,4.5898 -35.55,13.5859 -8.46,9.1836 -12.69,21.4219 -12.69,36.9922 0,7.3789 1.08,14.1287 3.15,20.3397 2.07,6.301 5.04,11.699 9.09,16.11 3.96,4.5 8.91,8.011 14.76,10.351 5.85,2.43 12.33,3.598 19.53,3.598 9.18,0 17.19,-2.071 23.85,-6.117 6.66,-4.141 11.61,-9.36 14.94,-15.84 3.24,-6.481 4.95,-13.051 4.95,-19.8011 0,-6.2109 -1.71,-10.2617 -5.13,-12.0586 -3.51,-1.8906 -8.28,-2.7929 -14.49,-2.7929 h -46.44 c 0,-5.668 1.17,-10.6172 3.24,-14.9375 2.16,-4.3203 4.95,-7.4727 8.46,-9.7227 3.51,-2.1601 7.38,-3.2383 11.61,-3.2383 2.88,0 5.49,0.3594 7.83,0.9883 2.34,0.7227 4.59,1.8008 6.84,3.3321 2.16,1.4375 4.14,2.9687 6.03,4.7695 1.8,1.6211 4.32,3.9609 7.2,6.8398 1.26,1.168 2.97,1.711 5.22,1.711 2.52,0 4.41,-0.7227 5.94,-2.1602 1.53,-1.3516 2.25,-3.332 2.25,-5.8516 0,-2.25 -0.81,-4.8593 -2.52,-7.9179 -1.71,-2.9727 -4.14,-5.8516 -7.65,-8.6406 -3.33,-2.7032 -7.65,-4.9493 -12.78,-6.8399 -5.04,-1.8008 -10.98,-2.6992 -17.64,-2.6992 m -2.52,83.6988 c -5.94,0 -10.8,-2.16 -14.58,-6.39 -3.78,-4.231 -6.03,-10.531 -6.93,-18.8987 h 43.02 c -0.54,8.4567 -2.7,14.8477 -6.48,18.9887 -3.87,4.23 -8.82,6.3 -15.03,6.3" /><path
         id="path42"
         style="fill:#918f8f;fill-opacity:1;fill-rule:nonzero;stroke:none"
         d="m 3456.81,37.0117 c -14.67,0 -26.19,4.4102 -34.38,13.3164 -8.19,8.9141 -12.33,20.8828 -12.33,35.9102 0,10.1719 1.8,19.1717 5.67,26.9997 3.78,7.742 9.18,13.774 16.29,18.094 7.11,4.227 15.66,6.387 25.65,6.387 6.12,0 11.7,-0.989 16.92,-2.789 5.13,-1.891 9.36,-4.321 13.05,-7.289 3.51,-2.969 6.21,-6.121 8.19,-9.45 1.8,-3.421 2.79,-6.57 2.79,-9.453 0,-2.879 -1.08,-5.398 -3.24,-7.468 -2.07,-2.0708 -4.68,-3.1489 -7.65,-3.1489 -1.98,0 -3.6,0.6289 -4.86,1.6211 -1.35,1.0778 -2.79,2.6988 -4.5,5.1288 -2.88,4.59 -5.85,8.008 -9,10.438 -3.24,2.25 -7.2,3.421 -12.15,3.421 -6.93,0 -12.6,-2.878 -16.92,-8.64 -4.32,-5.758 -6.39,-13.5002 -6.39,-23.4884 0,-4.5899 0.54,-8.9102 1.62,-12.8711 1.08,-3.8711 2.7,-7.1992 4.77,-9.9922 2.07,-2.6992 4.68,-4.7695 7.56,-6.207 2.97,-1.4415 6.21,-2.1602 9.81,-2.1602 4.68,0 8.82,1.168 12.15,3.418 3.42,2.3398 6.48,5.8515 9.09,10.5312 1.44,2.8789 2.97,5.0391 4.68,6.5703 1.62,1.6211 3.69,2.3399 6.12,2.3399 2.88,0 5.31,-1.0821 7.2,-3.4219 1.98,-2.3398 2.88,-4.7695 2.88,-7.3789 0,-3.0586 -0.81,-6.3906 -2.61,-9.8984 -1.8,-3.5118 -4.5,-6.8399 -8.1,-9.9922 -3.6,-3.1485 -8.19,-5.7578 -13.77,-7.6485 -5.49,-1.9804 -11.7,-2.8789 -18.54,-2.8789" /><path
         id="path44"
         style="fill:#918f8f;fill-opacity:1;fill-rule:nonzero;stroke:none"
         d="m 3550.77,36.7422 c -7.47,0 -13.14,1.3476 -16.92,3.957 -3.78,2.6094 -6.39,6.1211 -7.47,10.8008 -1.26,4.5898 -1.8,10.7109 -1.8,18.4492 v 47.6098 h -3.24 c -3.33,0 -5.94,0.812 -7.74,2.523 -1.8,1.707 -2.7,3.867 -2.7,6.477 0,2.613 0.9,4.679 2.79,6.39 1.89,1.621 4.68,2.43 8.19,2.43 h 2.7 v 14.941 c 0,3.961 0.09,7.11 0.27,9.36 0.18,2.34 0.72,4.23 1.71,5.851 0.9,1.711 2.25,3.059 3.96,4.141 1.8,1.078 3.69,1.527 5.85,1.527 2.97,0 5.76,-1.168 8.19,-3.508 1.53,-1.531 2.61,-3.421 3.06,-5.671 0.45,-2.34 0.63,-5.579 0.63,-9.719 v -16.922 h 8.73 c 3.33,0 5.94,-0.809 7.74,-2.43 1.71,-1.711 2.61,-3.777 2.61,-6.39 0,-3.329 -1.26,-5.758 -3.78,-7.02 -2.52,-1.348 -6.12,-1.98 -10.8,-1.98 h -4.5 V 71.9297 c 0,-3.8711 0.18,-6.9297 0.36,-9 0.36,-2.0703 1.08,-3.7813 2.16,-5.0391 1.08,-1.3515 2.97,-1.9804 5.49,-1.9804 1.44,0 3.33,0.1796 5.67,0.7187 2.34,0.543 4.23,0.8125 5.58,0.8125 1.89,0 3.69,-0.8125 5.22,-2.3398 1.44,-1.711 2.25,-3.6016 2.25,-6.0313 0,-3.9609 -2.07,-7.0195 -6.21,-9.1797 -4.23,-2.0703 -10.26,-3.1484 -18,-3.1484" /><path
         id="path46"
         style="fill:#918f8f;fill-opacity:1;fill-rule:nonzero;stroke:none"
         d="m 3625.11,36.7422 c -7.2,0 -13.68,1.168 -19.44,3.6875 -5.67,2.3398 -10.71,5.8516 -14.85,10.3516 -4.23,4.5 -7.38,9.8085 -9.54,15.9296 -2.16,6.211 -3.24,12.961 -3.24,20.4297 0,7.4688 1.08,14.3084 3.24,20.6094 2.25,6.211 5.31,11.52 9.45,15.93 4.14,4.41 9.18,7.832 14.94,10.261 5.94,2.34 12.42,3.598 19.44,3.598 7.2,0 13.68,-1.258 19.62,-3.687 5.85,-2.43 10.8,-5.852 15.03,-10.352 4.14,-4.5 7.38,-9.809 9.54,-16.02 2.16,-6.121 3.24,-12.9605 3.24,-20.4292 0,-7.2891 -1.08,-14.1289 -3.33,-20.4297 -2.16,-6.1211 -5.4,-11.5195 -9.54,-16.0195 -4.23,-4.5 -9.18,-7.8321 -14.94,-10.2618 -5.85,-2.4296 -12.33,-3.5976 -19.62,-3.5976 m 0,82.3478 c -4.59,0 -8.73,-1.262 -12.24,-3.781 -3.6,-2.52 -6.3,-6.207 -8.19,-11.161 -1.89,-4.7691 -2.88,-10.5269 -2.88,-17.0972 0,-6.4805 0.99,-12.0625 2.88,-16.9219 1.89,-4.8594 4.5,-8.5508 8.01,-11.1601 3.51,-2.5196 7.65,-3.7774 12.42,-3.7774 7.2,0 12.87,2.7891 17.19,8.457 4.23,5.5821 6.39,13.5 6.39,23.4024 0,10.0781 -2.16,18.0002 -6.39,23.6682 -4.32,5.582 -9.99,8.371 -17.19,8.371" /><path
         id="path48"
         style="fill:#918f8f;fill-opacity:1;fill-rule:nonzero;stroke:none"
         d="m 3702.78,36.7422 c -3.42,0 -6.21,1.3476 -8.37,3.7773 -2.25,2.6094 -3.33,6.3008 -3.33,11.3399 v 68.9416 c 0,11.16 3.87,16.738 11.61,16.738 3.87,0 6.75,-1.348 8.46,-3.961 1.71,-2.519 2.7,-6.387 2.88,-11.519 2.88,5.132 5.76,9 8.73,11.519 3.06,2.613 7.02,3.961 11.97,3.961 5.04,0 9.81,-1.348 14.58,-3.961 4.68,-2.519 7.02,-6.027 7.02,-10.348 0,-2.968 -0.99,-5.492 -3.06,-7.468 -1.89,-1.981 -4.14,-2.973 -6.48,-2.973 -0.81,0 -2.97,0.633 -6.3,1.711 -3.33,1.168 -6.3,1.711 -8.82,1.711 -3.42,0 -6.3,-0.902 -8.46,-2.879 -2.25,-1.98 -3.96,-4.773 -5.13,-8.461 -1.26,-3.781 -2.16,-8.2812 -2.52,-13.4101 -0.45,-5.2226 -0.72,-11.5195 -0.72,-18.9921 V 51.8594 c 0,-5.0391 -1.17,-8.8203 -3.42,-11.3399 -2.25,-2.5195 -5.13,-3.7773 -8.64,-3.7773" /><path
         id="path50"
         style="fill:#918f8f;fill-opacity:1;fill-rule:nonzero;stroke:none"
         d="m 3799.53,36.7422 c -8.46,0 -15.75,1.3476 -21.87,4.1367 -6.12,2.6992 -10.62,6.1211 -13.5,10.1719 -2.88,4.0508 -4.41,8.1914 -4.41,12.2383 0,2.7031 0.99,5.0429 2.88,7.0195 1.8,1.9805 4.23,2.8828 7.02,2.8828 2.52,0 4.41,-0.6328 5.76,-1.8906 1.35,-1.3516 2.61,-3.0625 3.78,-5.4024 2.52,-4.4101 5.4,-7.6484 8.82,-9.8984 3.33,-2.1602 8.01,-3.2383 13.86,-3.2383 4.77,0 8.64,1.0781 11.7,3.3281 3.06,2.1602 4.59,4.6797 4.59,7.5586 0,4.4102 -1.62,7.5625 -4.77,9.543 -3.15,2.0703 -8.37,3.957 -15.57,5.7578 -8.19,2.0703 -14.85,4.3203 -19.98,6.6602 -5.13,2.3398 -9.27,5.4023 -12.33,9.1797 -3.06,3.7812 -4.68,8.5509 -4.68,14.1329 0,4.949 1.44,9.629 4.32,14.039 2.79,4.41 7.02,7.918 12.6,10.617 5.49,2.613 12.15,3.961 20.07,3.961 6.12,0 11.61,-0.719 16.56,-2.07 4.86,-1.258 9,-3.059 12.24,-5.309 3.24,-2.25 5.76,-4.68 7.47,-7.379 1.8,-2.793 2.61,-5.492 2.61,-8.011 0,-2.879 -0.9,-5.219 -2.79,-7.02 -1.8,-1.801 -4.41,-2.699 -7.74,-2.699 -2.43,0 -4.5,0.719 -6.3,2.16 -1.62,1.437 -3.6,3.598 -5.85,6.48 -1.8,2.43 -3.87,4.411 -6.3,5.848 -2.52,1.441 -5.76,2.16 -9.9,2.16 -4.32,0 -7.92,-0.898 -10.71,-2.879 -2.88,-1.89 -4.32,-4.23 -4.32,-7.109 0,-2.609 1.08,-4.77 3.15,-6.391 2.07,-1.711 4.86,-3.058 8.46,-4.14 3.51,-1.078 8.37,-2.43 14.58,-4.0511 7.38,-1.8008 13.41,-4.0469 18.09,-6.6601 4.68,-2.6094 8.19,-5.668 10.62,-9.2696 2.43,-3.5078 3.6,-7.5586 3.6,-12.0586 0,-6.8398 -1.53,-12.6914 -4.77,-17.5508 -3.24,-4.9492 -7.92,-8.5507 -14.13,-11.0703 -6.3,-2.5195 -13.86,-3.7773 -22.86,-3.7773" /><path
         id="path52"
         style="fill:#918f8f;fill-opacity:1;fill-rule:nonzero;stroke:none"
         d="m 3868.29,36.7422 c -3.6,0 -6.75,1.168 -9.27,3.6875 -2.7,2.3398 -3.96,5.7617 -3.96,10.082 0,3.6875 1.26,6.9297 3.69,9.5391 2.52,2.6992 5.58,3.9609 9.27,3.9609 3.6,0 6.75,-1.2617 9.27,-3.9609 2.61,-2.5195 3.87,-5.7617 3.87,-9.5391 0,-4.2304 -1.26,-7.6523 -3.87,-10.082 -2.52,-2.4297 -5.58,-3.6875 -9,-3.6875" /><path
         id="path54"
         style="fill:#918f8f;fill-opacity:1;fill-rule:nonzero;stroke:none"
         d="m 3949.74,36.7422 c -7.2,0 -13.68,1.168 -19.44,3.6875 -5.76,2.3398 -10.62,5.8516 -14.85,10.3516 -4.23,4.5 -7.47,9.8085 -9.63,15.9296 -2.16,6.211 -3.24,12.961 -3.24,20.4297 0,7.4688 1.08,14.3084 3.33,20.6094 2.25,6.211 5.31,11.52 9.45,15.93 4.14,4.41 9.09,7.832 14.94,10.261 5.85,2.34 12.33,3.598 19.44,3.598 7.2,0 13.68,-1.258 19.53,-3.687 5.94,-2.43 10.89,-5.852 15.12,-10.352 4.14,-4.5 7.29,-9.809 9.45,-16.02 2.25,-6.121 3.33,-12.9605 3.33,-20.4292 0,-7.2891 -1.08,-14.1289 -3.33,-20.4297 -2.25,-6.1211 -5.4,-11.5195 -9.63,-16.0195 -4.14,-4.5 -9.09,-7.8321 -14.94,-10.2618 -5.76,-2.4296 -12.33,-3.5976 -19.53,-3.5976 m 0,82.3478 c -4.68,0 -8.73,-1.262 -12.24,-3.781 -3.6,-2.52 -6.3,-6.207 -8.19,-11.161 -1.89,-4.7691 -2.88,-10.5269 -2.88,-17.0972 0,-6.4805 0.9,-12.0625 2.79,-16.9219 1.98,-4.8594 4.59,-8.5508 8.1,-11.1601 3.51,-2.5196 7.65,-3.7774 12.42,-3.7774 7.2,0 12.87,2.7891 17.1,8.457 4.32,5.5821 6.39,13.5 6.39,23.4024 0,10.0781 -2.07,18.0002 -6.39,23.6682 -4.23,5.582 -9.9,8.371 -17.1,8.371" /><path
         id="path56"
         style="fill:#918f8f;fill-opacity:1;fill-rule:nonzero;stroke:none"
         d="m 4027.41,36.7422 c -3.42,0 -6.21,1.3476 -8.46,3.7773 -2.16,2.6094 -3.24,6.3008 -3.24,11.3399 v 68.9416 c 0,11.16 3.87,16.738 11.52,16.738 3.96,0 6.75,-1.348 8.55,-3.961 1.71,-2.519 2.7,-6.387 2.88,-11.519 2.79,5.132 5.76,9 8.73,11.519 2.97,2.613 7.02,3.961 11.88,3.961 5.13,0 9.9,-1.348 14.58,-3.961 4.68,-2.519 7.11,-6.027 7.11,-10.348 0,-2.968 -1.08,-5.492 -3.06,-7.468 -1.98,-1.981 -4.14,-2.973 -6.48,-2.973 -0.81,0 -2.97,0.633 -6.3,1.711 -3.33,1.168 -6.3,1.711 -8.82,1.711 -3.51,0 -6.3,-0.902 -8.55,-2.879 -2.16,-1.98 -3.87,-4.773 -5.13,-8.461 -1.17,-3.781 -2.07,-8.2812 -2.52,-13.4101 -0.45,-5.2226 -0.72,-11.5195 -0.72,-18.9921 V 51.8594 c 0,-5.0391 -1.08,-8.8203 -3.33,-11.3399 -2.25,-2.5195 -5.13,-3.7773 -8.64,-3.7773" /><path
         id="path58"
         style="fill:#918f8f;fill-opacity:1;fill-rule:nonzero;stroke:none"
         d="m 4129.2,0.0195313 c -8.19,0 -15.48,1.1718787 -21.87,3.5117187 -6.48,2.42969 -11.43,5.48828 -14.94,9.35935 -3.42,3.6875 -5.22,7.5586 -5.22,11.6094 0,3.0586 0.99,5.4883 2.97,7.3789 1.98,1.9805 4.32,2.8828 7.11,2.8828 3.51,0 6.57,-1.6211 9.18,-4.7734 1.26,-1.707 2.61,-3.3281 3.96,-4.9492 1.35,-1.7071 2.88,-3.1485 4.5,-4.3203 1.62,-1.168 3.69,-2.0704 6.03,-2.6094 2.25,-0.6289 4.95,-0.8985 7.92,-0.8985 6.12,0 10.98,0.8985 14.31,2.6993 3.42,1.8007 5.85,4.2304 7.2,7.4687 1.26,3.2422 2.16,6.6602 2.34,10.2617 0.27,3.7813 0.45,9.6289 0.54,17.7305 -3.6,-5.3125 -7.92,-9.3594 -12.69,-12.1523 -4.77,-2.7891 -10.44,-4.1407 -17.01,-4.1407 -8.01,0 -14.94,2.0703 -20.88,6.3008 -5.94,4.2305 -10.53,10.1719 -13.68,17.8203 -3.15,7.6524 -4.86,16.3828 -4.86,26.3711 0,7.5586 0.99,14.2187 2.97,20.2497 1.89,5.942 4.68,10.981 8.28,15.121 3.6,4.137 7.74,7.2 12.42,9.36 4.77,2.07 9.9,3.148 15.57,3.148 6.66,0 12.51,-1.437 17.46,-4.14 4.95,-2.61 9.45,-6.93 13.68,-12.598 v 3.328 c 0,4.32 1.08,7.563 3.06,9.992 2.07,2.34 4.68,3.598 7.83,3.598 4.59,0 7.65,-1.617 9.18,-4.68 1.53,-3.148 2.25,-7.648 2.25,-13.59 V 47.3594 c 0,-8.2813 -0.9,-15.3008 -2.52,-21.2383 -1.71,-5.9414 -4.41,-10.8008 -8.1,-14.6719 -3.69,-3.96092 -8.64,-6.74998 -14.58,-8.64061 -6.03,-1.886715 -13.5,-2.7890587 -22.41,-2.7890587 M 4130.46,119 c -6.75,0 -12.24,-2.699 -16.29,-8.102 -4.14,-5.398 -6.21,-13.0464 -6.21,-22.9488 0,-9.9883 2.16,-17.6406 6.39,-22.7695 4.14,-5.1289 9.63,-7.7383 16.2,-7.7383 3.96,0 7.74,1.168 11.25,3.3281 3.51,2.25 6.3,5.5821 8.55,9.9922 2.25,4.5 3.33,9.8086 3.33,16.1992 0,10.0782 -2.16,17.9101 -6.48,23.5781 -4.23,5.672 -9.81,8.461 -16.74,8.461" /><path
         id="path60"
         style="fill:#918f8f;fill-opacity:1;fill-rule:nonzero;stroke:none"
         d="m 3112.38,237.441 c -38.43,0 -71.28,14.219 -98.46,42.661 -27.18,28.347 -40.68,62.636 -40.68,102.777 0,40.141 13.5,74.34 40.68,102.781 27.18,28.442 60.03,42.66 98.46,42.66 38.43,0 71.19,-14.218 98.37,-42.66 27.18,-28.441 40.86,-62.64 40.86,-102.781 0,-40.141 -13.68,-74.43 -40.86,-102.777 -27.18,-28.442 -59.94,-42.661 -98.37,-42.661 m -53.66,48.489 c 15.74,-10.379 33.62,-15.551 53.66,-15.551 28.98,0 53.37,10.801 73.35,32.582 19.98,21.687 29.97,48.418 29.97,79.918 0,28.391 -8.12,52.902 -24.35,73.34 l 7.79,10 -20.34,17.191 -6.4,-8.211 c -17.22,13.512 -37.19,20.27 -60.02,20.27 -28.98,0 -53.46,-10.887 -73.44,-32.668 -19.98,-21.692 -29.97,-48.422 -29.97,-79.922 0,-31.301 9.87,-57.891 29.6,-79.508 l -9.08,-11.66 20.34,-17.191 8.89,11.41 m 57.44,14.691 c -14.65,0 -27.42,3.309 -38.31,9.879 l 21.27,27.309 c 5.28,-2.95 11.43,-4.43 18.48,-4.43 18.99,0 28.98,9.09 30.06,27.269 h 35.19 c -2.52,-18.988 -10.26,-33.75 -23.22,-44.457 -11.97,-10.441 -26.46,-15.57 -43.47,-15.57 m -57.97,27.938 c -11.05,14.742 -16.55,33.293 -16.55,55.582 0,24.839 6.48,44.64 19.35,59.578 12.78,15.031 30.96,22.5 54.45,22.5 15.88,0 29.53,-3.867 40.87,-11.68 l -20.08,-25.789 c -4.65,3.082 -10.62,4.621 -17.91,4.621 -27.18,0 -40.86,-16.109 -40.86,-48.422 0,-9.82 1.49,-18.449 4.45,-25.937 l -23.72,-30.453 m 124.66,80.961 h -27.87 l 19.57,25.128 c 4.12,-7.277 6.9,-15.66 8.3,-25.128" /><path
         id="path62"
         style="fill:#918f8f;fill-opacity:1;fill-rule:nonzero;stroke:none"
         d="m 3049.83,274.52 -20.34,17.191 9.08,11.66 19.62,25.188 23.72,30.453 54.32,69.738 20.08,25.789 16.09,20.66 6.4,8.211 20.34,-17.191 -7.79,-10 -16.8,-21.571 -19.57,-25.128 -55.86,-71.711 -21.27,-27.309 -19.13,-24.57 -8.89,-11.41" /><path
         id="path64"
         style="fill:#4d42a2;fill-opacity:1;fill-rule:nonzero;stroke:none"
         d="m 5831.78,4804.26 87.93,-24.26 c 0.17,2.6 0.37,5.2 0.52,7.8 l -52.08,77.62 c -12.05,-20.44 -24.17,-40.84 -36.37,-61.16" /><path
         id="path66"
         style="fill:#3245a2;fill-opacity:1;fill-rule:nonzero;stroke:none"
         d="m 5023.92,3990.11 -108.47,-94.67 758.15,57.49 c 177.23,323.49 228.87,580.28 245.54,818.46 l -247.96,-216.4 c -163.53,-231.82 -360.3,-435.92 -647.26,-564.88" /><path
         id="path68"
         style="fill:#3546a3;fill-opacity:1;fill-rule:nonzero;stroke:none"
         d="m 5023.92,3990.11 c -35.52,-15.96 -72.43,-30.78 -110.83,-44.34 l 2.36,-50.33 108.47,94.67" /><path
         id="path70"
         style="fill:#3546a3;fill-opacity:1;fill-rule:nonzero;stroke:none"
         d="m 5671.18,4554.99 247.96,216.4 c 0.2,2.88 0.38,5.74 0.57,8.61 l -87.93,24.26 c -51.13,-85.11 -103.88,-168.85 -160.6,-249.27" /><path
         id="path72"
         style="fill:#911b63;fill-opacity:1;fill-rule:nonzero;stroke:none"
         d="m 5868.15,4865.42 52.08,-77.62 c 1.21,18.92 2.2,37.73 3.03,56.44 l -5.61,105.78 c -16.44,-28.25 -32.91,-56.48 -49.5,-84.6" /><path
         id="path74"
         style="fill:#861432;fill-opacity:1;fill-rule:nonzero;stroke:none"
         d="m 5917.65,4950.02 5.61,-105.78 c 1.09,24.43 1.9,48.7 2.53,72.88 l -0.32,46.33 c -2.61,-4.48 -5.22,-8.95 -7.82,-13.43" /><path
         id="path76"
         style="fill:#3359b1;fill-opacity:1;fill-rule:nonzero;stroke:none"
         d="m 5251.98,1620.72 27.24,1361.36 -1011.94,90.51 z" /><path
         id="path78"
         style="fill:#3755ae;fill-opacity:1;fill-rule:nonzero;stroke:none"
         d="m 4267.28,3072.59 1011.94,-90.51 8.23,411.39 c 24.83,30.39 48.59,60.23 71.5,89.59 l -443.5,412.38 -648.17,-822.85" /><path
         id="path80"
         style="fill:#314ba7;fill-opacity:1;fill-rule:nonzero;stroke:none"
         d="m 5358.95,3483.06 c 134.35,172.28 236.68,327.54 314.65,469.87 l -758.15,-57.49 443.5,-412.38" /><path
         id="path82"
         style="fill:#264da4;fill-opacity:1;fill-rule:nonzero;stroke:none"
         d="M 5238.59,951.648 5251.8,1611.27 4633.39,951.648 Z" /><path
         id="path84"
         style="fill:#2f57af;fill-opacity:1;fill-rule:nonzero;stroke:none"
         d="m 4560.69,951.648 h 72.7 l 618.41,659.622 0.08,3.87 -822.58,-47.31 131.39,-616.182" /><path
         id="path86"
         style="fill:#3564b8;fill-opacity:1;fill-rule:nonzero;stroke:none"
         d="m 4234.41,2086.96 h 84.17 l 110.72,-519.13 822.58,47.31 0.1,5.58 -984.7,1451.87 -32.87,-985.63" /><path
         id="path88"
         style="fill:#3a6ebf;fill-opacity:1;fill-rule:nonzero;stroke:none"
         d="m 3789.19,2732.42 234.48,-645.46 h 210.74 l 32.87,985.63 -478.09,-340.17" /><path
         id="path90"
         style="fill:#3d61b6;fill-opacity:1;fill-rule:nonzero;stroke:none"
         d="m 4267.28,3072.59 648.17,822.85 -1245.78,-307.99 z" /><path
         id="path92"
         style="fill:#3b51ab;fill-opacity:1;fill-rule:nonzero;stroke:none"
         d="m 4913.09,3945.77 c -13.57,-4.8 -27.34,-9.44 -41.29,-13.92 l 43.65,-36.41 -2.36,50.33" /><path
         id="path94"
         style="fill:#3e61b6;fill-opacity:1;fill-rule:nonzero;stroke:none"
         d="m 4915.45,3895.44 -43.65,36.41 c -15,-4.83 -30.19,-9.51 -45.65,-13.95 H 3683.69 l -14.02,-330.45 1245.78,307.99" /><path
         id="path96"
         style="fill:#366ebf;fill-opacity:1;fill-rule:nonzero;stroke:none"
         d="m 3786.72,2086.96 h 236.95 l -234.48,645.46 z" /><path
         id="path98"
         style="fill:#3f71c1;fill-opacity:1;fill-rule:nonzero;stroke:none"
         d="m 3789.19,2732.42 478.09,340.17 -597.61,514.86 z" /><path
         id="path100"
         style="fill:#4378c5;fill-opacity:1;fill-rule:nonzero;stroke:none"
         d="m 3683.69,3917.9 h -764.03 l 750.01,-330.45 z" /><path
         id="path102"
         style="fill:#3769bc;fill-opacity:1;fill-rule:nonzero;stroke:none"
         d="m 2177.71,1660.1 23.31,94.7 -218.43,30.64 z" /><path
         id="path104"
         style="fill:#3c79c6;fill-opacity:1;fill-rule:nonzero;stroke:none"
         d="M 2201.02,1754.8 2242,1921.41 1982.59,1785.44 Z" /><path
         id="path106"
         style="fill:#3c79c6;fill-opacity:1;fill-rule:nonzero;stroke:none"
         d="m 2557.82,2086.96 h 1228.9 l 2.47,645.46 z" /><path
         id="path108"
         style="fill:#4283cc;fill-opacity:1;fill-rule:nonzero;stroke:none"
         d="m 2263.01,3063.39 -280.42,-1277.95 259.41,135.97 40.72,165.55 h 275.1 l 1231.37,645.46 -1526.18,330.97" /><path
         id="path110"
         style="fill:#427fca;fill-opacity:1;fill-rule:nonzero;stroke:none"
         d="m 2263.01,3063.39 1526.18,-330.97 -119.52,855.03 z" /><path
         id="path112"
         style="fill:#518dd2;fill-opacity:1;fill-rule:nonzero;stroke:none"
         d="m 2359.55,4814.83 17.55,-37.66 -13.11,37.9 z" /><path
         id="path114"
         style="fill:#7da5d7;fill-opacity:1;fill-rule:nonzero;stroke:none"
         d="m 2363.99,4815.07 -2.48,7.17 -1.96,-7.41 z" /><path
         id="path116"
         style="fill:#4784cd;fill-opacity:1;fill-rule:nonzero;stroke:none"
         d="m 3669.67,3587.45 -750.01,330.45 h -218.88 l -437.77,-854.51 1406.66,524.06" /><path
         id="path118"
         style="fill:#3860b5;fill-opacity:1;fill-rule:nonzero;stroke:none"
         d="m 1964.3,951.648 h 39.14 l 174.27,708.452 -195.12,125.34 -18.29,-833.792" /><path
         id="path120"
         style="fill:#3a5fb5;fill-opacity:1;fill-rule:nonzero;stroke:none"
         d="M 1375.8,1390.1 1611.03,951.648 H 1964.3 L 1982.59,1785.44 1375.8,1390.1" /><path
         id="path122"
         style="fill:#4589d0;fill-opacity:1;fill-rule:nonzero;stroke:none"
         d="m 1982.59,1785.44 280.42,1277.95 -583.81,-445.9 z" /><path
         id="path124"
         style="fill:#cc584d;fill-opacity:1;fill-rule:nonzero;stroke:none"
         d="m 1894.92,6171.23 -79.3,-135.15 140.36,-41.37 z" /><path
         id="path126"
         style="fill:#6ab6e8;fill-opacity:1;fill-rule:nonzero;stroke:none"
         d="m 2590.12,4160 -202.4,-76.36 250.21,-61.65 z" /><path
         id="path128"
         style="fill:#6ab6e8;fill-opacity:1;fill-rule:nonzero;stroke:none"
         d="m 1472.33,4309.16 516.63,-127.28 525.5,198.18 -137.36,397.11 -17.55,37.66 -887.22,-505.67" /><path
         id="path130"
         style="fill:#54a4df;fill-opacity:1;fill-rule:nonzero;stroke:none"
         d="m 1637.3,4049.25 351.66,132.63 -516.63,127.28 z" /><path
         id="path132"
         style="fill:#54a4df;fill-opacity:1;fill-rule:nonzero;stroke:none"
         d="m 2700.78,3917.9 h -26.79 l -36.06,104.09 -250.21,61.65 -623.04,-235.09 498.33,-785.16 437.77,854.51" /><path
         id="path134"
         style="fill:#cebabb;fill-opacity:1;fill-rule:nonzero;stroke:none"
         d="m 2361.51,4822.24 -405.53,1172.47 -140.36,41.37 -63.34,-107.93 607.27,-1113.32 1.96,7.41" /><path
         id="path136"
         style="fill:#d6d5d8;fill-opacity:1;fill-rule:nonzero;stroke:none"
         d="m 2359.55,4814.83 -607.27,1113.32 -269.36,-459.03 -15.9,-6.77 -160.18,-486.62 1052.71,-160.9" /><path
         id="path138"
         style="fill:#9fd1eb;fill-opacity:1;fill-rule:nonzero;stroke:none"
         d="m 1472.33,4309.16 887.22,505.67 -1052.71,160.9 z" /><path
         id="path140"
         style="fill:#4e9ddb;fill-opacity:1;fill-rule:nonzero;stroke:none"
         d="m 1509.99,4001.24 127.31,48.01 -164.97,259.91 z" /><path
         id="path142"
         style="fill:#4e9ddb;fill-opacity:1;fill-rule:nonzero;stroke:none"
         d="m 2263.01,3063.39 -498.33,785.16 -225.62,-85.13 140.14,-1145.93 583.81,445.9" /><path
         id="path144"
         style="fill:#3756ae;fill-opacity:1;fill-rule:nonzero;stroke:none"
         d="m 1302.32,1332.38 -4.88,-380.732 h 313.59 l -235.23,438.452 -73.48,-57.72" /><path
         id="path146"
         style="fill:#407cc8;fill-opacity:1;fill-rule:nonzero;stroke:none"
         d="m 1375.8,1390.1 606.79,395.34 -303.39,832.05 z" /><path
         id="path148"
         style="fill:#82c9f0;fill-opacity:1;fill-rule:nonzero;stroke:none"
         d="m 278.191,4211.69 139.735,-314.32 31.707,-32.18 813.657,336.75 37.18,-279.72 209.52,79.02 -37.66,307.92 -1194.139,-97.47" /><path
         id="path150"
         style="fill:#82c9f0;fill-opacity:1;fill-rule:nonzero;stroke:none"
         d="m 1539.06,3763.42 -207.03,-78.12 0.43,-1.73 -9.04,-705.06 355.78,-361.02 -140.14,1145.93" /><path
         id="path152"
         style="fill:#e79277;fill-opacity:1;fill-rule:nonzero;stroke:none"
         d="M 1467.02,5462.35 987.715,5258.19 1306.84,4975.73 Z" /><path
         id="path154"
         style="fill:#4884cd;fill-opacity:1;fill-rule:nonzero;stroke:none"
         d="m 1319.1,2641.62 -2.93,-228.87 363.03,204.74 z" /><path
         id="path156"
         style="fill:#6fbdeb;fill-opacity:1;fill-rule:nonzero;stroke:none"
         d="m 1323.42,2978.51 -4.32,-336.89 360.1,-24.13 z" /><path
         id="path158"
         style="fill:#6fbdeb;fill-opacity:1;fill-rule:nonzero;stroke:none"
         d="m 434.934,3859.11 14.699,6.08 -31.707,32.18 z" /><path
         id="path160"
         style="fill:#427bc7;fill-opacity:1;fill-rule:nonzero;stroke:none"
         d="m 1679.2,2617.49 -363.03,-204.74 -12.48,-973.26 72.11,-49.39 303.4,1227.39" /><path
         id="path162"
         style="fill:#efa88c;fill-opacity:1;fill-rule:nonzero;stroke:none"
         d="m 987.715,5258.19 -212.688,-90.6 531.813,-191.86 z" /><path
         id="path164"
         style="fill:#bbe2f6;fill-opacity:1;fill-rule:nonzero;stroke:none"
         d="m 1306.84,4975.73 -1059.711,-694.16 31.062,-69.88 1194.139,97.47 -165.49,666.57" /><path
         id="path166"
         style="fill:#3e65b9;fill-opacity:1;fill-rule:nonzero;stroke:none"
         d="m 1303.69,1439.49 -1.37,-107.11 73.48,57.72 z" /><path
         id="path168"
         style="fill:#eeeae4;fill-opacity:1;fill-rule:nonzero;stroke:none"
         d="M 775.027,5167.59 128.805,4892.34 124.938,4556.42 247.129,4281.57 1306.84,4975.73 775.027,5167.59" /><path
         id="path170"
         style="fill:#f6d7c6;fill-opacity:1;fill-rule:nonzero;stroke:none"
         d="m 0,4837.47 124.938,-281.05 3.867,335.92 z" /></g></g></svg>